M48
; DRILL file {KiCad 6.99.0} date Sat 01 Jan 2022 23:32:44
; FORMAT={-:-/ absolute / metric / decimal}
; #@! TF.CreationDate,2022-01-01T23:32:44+11:00
; #@! TF.GenerationSoftware,Kicad,Pcbnew,6.99.0
; #@! TF.FileFunction,NonPlated,1,2,NPTH
FMAT,2
METRIC
; #@! TA.AperFunction,NonPlated,NPTH,ComponentDrill
T1C0.800
; #@! TA.AperFunction,NonPlated,NPTH,ComponentDrill
T2C1.700
; #@! TA.AperFunction,NonPlated,NPTH,ComponentDrill
T3C1.750
; #@! TA.AperFunction,NonPlated,NPTH,ComponentDrill
T4C3.988
%
G90
G05
T1
X36.055Y-45.475
X36.055Y-64.525
X36.055Y-83.575
X55.105Y-45.475
X55.105Y-64.525
X55.105Y-83.575
X74.155Y-45.475
X74.155Y-64.525
X74.155Y-83.575
X93.205Y-45.475
X93.205Y-64.525
X93.205Y-83.575
X112.255Y-45.475
X112.255Y-64.525
X112.255Y-83.575
X131.305Y-45.475
X131.305Y-64.525
X131.305Y-83.575
X150.355Y-45.475
X150.355Y-64.525
X150.355Y-83.575
X169.405Y-45.475
X169.405Y-64.525
X188.455Y-45.475
X188.455Y-64.525
T2
X35.775Y-41.275
X35.775Y-60.325
X35.775Y-79.375
X46.775Y-41.275
X46.775Y-60.325
X46.775Y-79.375
X54.825Y-41.275
X54.825Y-60.325
X54.825Y-79.375
X65.825Y-41.275
X65.825Y-60.325
X65.825Y-79.375
X73.875Y-41.275
X73.875Y-60.325
X73.875Y-79.375
X84.875Y-41.275
X84.875Y-60.325
X84.875Y-79.375
X92.925Y-41.275
X92.925Y-60.325
X92.925Y-79.375
X103.925Y-41.275
X103.925Y-60.325
X103.925Y-79.375
X111.975Y-41.275
X111.975Y-60.325
X111.975Y-79.375
X122.975Y-41.275
X122.975Y-60.325
X122.975Y-79.375
X131.025Y-41.275
X131.025Y-60.325
X131.025Y-79.375
X142.025Y-41.275
X142.025Y-60.325
X142.025Y-79.375
X150.075Y-41.275
X150.075Y-60.325
X150.075Y-79.375
X161.075Y-41.275
X161.075Y-60.325
X161.075Y-79.375
X169.125Y-41.275
X169.125Y-60.325
X180.125Y-41.275
X180.125Y-60.325
X188.175Y-41.275
X188.175Y-60.325
X199.175Y-41.275
X199.175Y-60.325
T3
X36.195Y-41.275
X36.195Y-60.325
X36.195Y-79.375
X46.355Y-41.275
X46.355Y-60.325
X46.355Y-79.375
X55.245Y-41.275
X55.245Y-60.325
X55.245Y-79.375
X65.405Y-41.275
X65.405Y-60.325
X65.405Y-79.375
X74.295Y-41.275
X74.295Y-60.325
X74.295Y-79.375
X84.455Y-41.275
X84.455Y-60.325
X84.455Y-79.375
X93.345Y-41.275
X93.345Y-60.325
X93.345Y-79.375
X103.505Y-41.275
X103.505Y-60.325
X103.505Y-79.375
X112.395Y-41.275
X112.395Y-60.325
X112.395Y-79.375
X122.555Y-41.275
X122.555Y-60.325
X122.555Y-79.375
X131.445Y-41.275
X131.445Y-60.325
X131.445Y-79.375
X141.605Y-41.275
X141.605Y-60.325
X141.605Y-79.375
X150.495Y-41.275
X150.495Y-60.325
X150.495Y-79.375
X160.655Y-41.275
X160.655Y-60.325
X160.655Y-79.375
X169.545Y-41.275
X169.545Y-60.325
X179.705Y-41.275
X179.705Y-60.325
X188.595Y-41.275
X188.595Y-60.325
X198.755Y-41.275
X198.755Y-60.325
T4
X41.275Y-41.275
X41.275Y-60.325
X41.275Y-79.375
X60.325Y-41.275
X60.325Y-60.325
X60.325Y-79.375
X79.375Y-41.275
X79.375Y-60.325
X79.375Y-79.375
X98.425Y-41.275
X98.425Y-60.325
X98.425Y-79.375
X117.475Y-41.275
X117.475Y-60.325
X117.475Y-79.375
X136.525Y-41.275
X136.525Y-60.325
X136.525Y-79.375
X155.575Y-41.275
X155.575Y-60.325
X155.575Y-79.375
X174.625Y-41.275
X174.625Y-60.325
X193.675Y-41.275
X193.675Y-60.325
T0
M30
