%TF.GenerationSoftware,KiCad,Pcbnew,6.99.0*%
%TF.CreationDate,2022-01-01T23:32:49+11:00*%
%TF.ProjectId,help,68656c70-2e6b-4696-9361-645f70636258,rev?*%
%TF.SameCoordinates,Original*%
%TF.FileFunction,Legend,Bot*%
%TF.FilePolarity,Positive*%
%FSLAX46Y46*%
G04 Gerber Fmt 4.6, Leading zero omitted, Abs format (unit mm)*
G04 Created by KiCad (PCBNEW 6.99.0) date 2022-01-01 23:32:49*
%MOMM*%
%LPD*%
G01*
G04 APERTURE LIST*
%ADD10C,0.150000*%
%ADD11C,0.300000*%
%ADD12C,0.381000*%
%ADD13R,1.752600X1.752600*%
%ADD14C,1.752600*%
G04 APERTURE END LIST*
D10*
%TO.C,SW25*%
X192024047Y-44846428D02*
X192785952Y-44846428D01*
X192405000Y-45227380D02*
X192405000Y-44465476D01*
X194564047Y-44846428D02*
X195325952Y-44846428D01*
%TO.C,SW16*%
X137414047Y-44846428D02*
X138175952Y-44846428D01*
X134874047Y-44846428D02*
X135635952Y-44846428D01*
X135255000Y-45227380D02*
X135255000Y-44465476D01*
%TO.C,SW15*%
X118364047Y-82946428D02*
X119125952Y-82946428D01*
X115824047Y-82946428D02*
X116585952Y-82946428D01*
X116205000Y-83327380D02*
X116205000Y-82565476D01*
%TO.C,SW5*%
X58674047Y-63896428D02*
X59435952Y-63896428D01*
X59055000Y-64277380D02*
X59055000Y-63515476D01*
X61214047Y-63896428D02*
X61975952Y-63896428D01*
%TO.C,SW13*%
X118364047Y-44846428D02*
X119125952Y-44846428D01*
X115824047Y-44846428D02*
X116585952Y-44846428D01*
X116205000Y-45227380D02*
X116205000Y-44465476D01*
%TO.C,SW10*%
X99314047Y-44846428D02*
X100075952Y-44846428D01*
X96774047Y-44846428D02*
X97535952Y-44846428D01*
X97155000Y-45227380D02*
X97155000Y-44465476D01*
%TO.C,SW4*%
X61214047Y-44846428D02*
X61975952Y-44846428D01*
X58674047Y-44846428D02*
X59435952Y-44846428D01*
X59055000Y-45227380D02*
X59055000Y-44465476D01*
%TO.C,SW17*%
X134874047Y-63896428D02*
X135635952Y-63896428D01*
X135255000Y-64277380D02*
X135255000Y-63515476D01*
X137414047Y-63896428D02*
X138175952Y-63896428D01*
%TO.C,SW8*%
X77724047Y-63896428D02*
X78485952Y-63896428D01*
X78105000Y-64277380D02*
X78105000Y-63515476D01*
X80264047Y-63896428D02*
X81025952Y-63896428D01*
%TO.C,SW7*%
X77724047Y-44846428D02*
X78485952Y-44846428D01*
X78105000Y-45227380D02*
X78105000Y-44465476D01*
X80264047Y-44846428D02*
X81025952Y-44846428D01*
%TO.C,SW19*%
X156464047Y-44846428D02*
X157225952Y-44846428D01*
X153924047Y-44846428D02*
X154685952Y-44846428D01*
X154305000Y-45227380D02*
X154305000Y-44465476D01*
%TO.C,U1*%
X186576107Y-84569333D02*
X186576107Y-84302666D01*
X186995154Y-84302666D02*
X186195154Y-84302666D01*
X186195154Y-84683619D01*
X186195154Y-85369333D02*
X186195154Y-84988380D01*
X186576107Y-84950285D01*
X186538011Y-84988380D01*
X186499916Y-85064571D01*
X186499916Y-85255047D01*
X186538011Y-85331238D01*
X186576107Y-85369333D01*
X186652297Y-85407428D01*
X186842773Y-85407428D01*
X186918964Y-85369333D01*
X186957059Y-85331238D01*
X186995154Y-85255047D01*
X186995154Y-85064571D01*
X186957059Y-84988380D01*
X186918964Y-84950285D01*
X184036107Y-84569333D02*
X184036107Y-84302666D01*
X184455154Y-84302666D02*
X183655154Y-84302666D01*
X183655154Y-84683619D01*
X183655154Y-85331238D02*
X183655154Y-85178857D01*
X183693250Y-85102666D01*
X183731345Y-85064571D01*
X183845630Y-84988380D01*
X183998011Y-84950285D01*
X184302773Y-84950285D01*
X184378964Y-84988380D01*
X184417059Y-85026476D01*
X184455154Y-85102666D01*
X184455154Y-85255047D01*
X184417059Y-85331238D01*
X184378964Y-85369333D01*
X184302773Y-85407428D01*
X184112297Y-85407428D01*
X184036107Y-85369333D01*
X183998011Y-85331238D01*
X183959916Y-85255047D01*
X183959916Y-85102666D01*
X183998011Y-85026476D01*
X184036107Y-84988380D01*
X184112297Y-84950285D01*
X173876107Y-84512190D02*
X173914202Y-84626476D01*
X173952297Y-84664571D01*
X174028488Y-84702666D01*
X174142773Y-84702666D01*
X174218964Y-84664571D01*
X174257059Y-84626476D01*
X174295154Y-84550285D01*
X174295154Y-84245523D01*
X173495154Y-84245523D01*
X173495154Y-84512190D01*
X173533250Y-84588380D01*
X173571345Y-84626476D01*
X173647535Y-84664571D01*
X173723726Y-84664571D01*
X173799916Y-84626476D01*
X173838011Y-84588380D01*
X173876107Y-84512190D01*
X173876107Y-84245523D01*
X173571345Y-85007428D02*
X173533250Y-85045523D01*
X173495154Y-85121714D01*
X173495154Y-85312190D01*
X173533250Y-85388380D01*
X173571345Y-85426476D01*
X173647535Y-85464571D01*
X173723726Y-85464571D01*
X173838011Y-85426476D01*
X174295154Y-84969333D01*
X174295154Y-85464571D01*
X179375154Y-73323523D02*
X178575154Y-73323523D01*
X178575154Y-73514000D01*
X178613250Y-73628285D01*
X178689440Y-73704476D01*
X178765630Y-73742571D01*
X178918011Y-73780666D01*
X179032297Y-73780666D01*
X179184678Y-73742571D01*
X179260869Y-73704476D01*
X179337059Y-73628285D01*
X179375154Y-73514000D01*
X179375154Y-73323523D01*
X178575154Y-74047333D02*
X178575154Y-74580666D01*
X179375154Y-74237809D01*
X171336107Y-73590190D02*
X171374202Y-73704476D01*
X171412297Y-73742571D01*
X171488488Y-73780666D01*
X171602773Y-73780666D01*
X171678964Y-73742571D01*
X171717059Y-73704476D01*
X171755154Y-73628285D01*
X171755154Y-73323523D01*
X170955154Y-73323523D01*
X170955154Y-73590190D01*
X170993250Y-73666380D01*
X171031345Y-73704476D01*
X171107535Y-73742571D01*
X171183726Y-73742571D01*
X171259916Y-73704476D01*
X171298011Y-73666380D01*
X171336107Y-73590190D01*
X171336107Y-73323523D01*
X170955154Y-74504476D02*
X170955154Y-74123523D01*
X171336107Y-74085428D01*
X171298011Y-74123523D01*
X171259916Y-74199714D01*
X171259916Y-74390190D01*
X171298011Y-74466380D01*
X171336107Y-74504476D01*
X171412297Y-74542571D01*
X171602773Y-74542571D01*
X171678964Y-74504476D01*
X171717059Y-74466380D01*
X171755154Y-74390190D01*
X171755154Y-74199714D01*
X171717059Y-74123523D01*
X171678964Y-74085428D01*
X194597059Y-83881666D02*
X194635154Y-83995952D01*
X194635154Y-84186428D01*
X194597059Y-84262619D01*
X194558964Y-84300714D01*
X194482773Y-84338809D01*
X194406583Y-84338809D01*
X194330392Y-84300714D01*
X194292297Y-84262619D01*
X194254202Y-84186428D01*
X194216107Y-84034047D01*
X194178011Y-83957857D01*
X194139916Y-83919761D01*
X194063726Y-83881666D01*
X193987535Y-83881666D01*
X193911345Y-83919761D01*
X193873250Y-83957857D01*
X193835154Y-84034047D01*
X193835154Y-84224523D01*
X193873250Y-84338809D01*
X193835154Y-84567380D02*
X193835154Y-85024523D01*
X194635154Y-84795952D02*
X193835154Y-84795952D01*
X173876107Y-73590190D02*
X173914202Y-73704476D01*
X173952297Y-73742571D01*
X174028488Y-73780666D01*
X174142773Y-73780666D01*
X174218964Y-73742571D01*
X174257059Y-73704476D01*
X174295154Y-73628285D01*
X174295154Y-73323523D01*
X173495154Y-73323523D01*
X173495154Y-73590190D01*
X173533250Y-73666380D01*
X173571345Y-73704476D01*
X173647535Y-73742571D01*
X173723726Y-73742571D01*
X173799916Y-73704476D01*
X173838011Y-73666380D01*
X173876107Y-73590190D01*
X173876107Y-73323523D01*
X173761821Y-74466380D02*
X174295154Y-74466380D01*
X173457059Y-74275904D02*
X174028488Y-74085428D01*
X174028488Y-74580666D01*
X199695154Y-84283619D02*
X199314202Y-84016952D01*
X199695154Y-83826476D02*
X198895154Y-83826476D01*
X198895154Y-84131238D01*
X198933250Y-84207428D01*
X198971345Y-84245523D01*
X199047535Y-84283619D01*
X199161821Y-84283619D01*
X199238011Y-84245523D01*
X199276107Y-84207428D01*
X199314202Y-84131238D01*
X199314202Y-83826476D01*
X199466583Y-84588380D02*
X199466583Y-84969333D01*
X199695154Y-84512190D02*
X198895154Y-84778857D01*
X199695154Y-85045523D01*
X198895154Y-85236000D02*
X199695154Y-85426476D01*
X199123726Y-85578857D01*
X199695154Y-85731238D01*
X198895154Y-85921714D01*
X196393250Y-84226476D02*
X196355154Y-84150285D01*
X196355154Y-84036000D01*
X196393250Y-83921714D01*
X196469440Y-83845523D01*
X196545630Y-83807428D01*
X196698011Y-83769333D01*
X196812297Y-83769333D01*
X196964678Y-83807428D01*
X197040869Y-83845523D01*
X197117059Y-83921714D01*
X197155154Y-84036000D01*
X197155154Y-84112190D01*
X197117059Y-84226476D01*
X197078964Y-84264571D01*
X196812297Y-84264571D01*
X196812297Y-84112190D01*
X197155154Y-84607428D02*
X196355154Y-84607428D01*
X197155154Y-85064571D01*
X196355154Y-85064571D01*
X197155154Y-85445523D02*
X196355154Y-85445523D01*
X196355154Y-85636000D01*
X196393250Y-85750285D01*
X196469440Y-85826476D01*
X196545630Y-85864571D01*
X196698011Y-85902666D01*
X196812297Y-85902666D01*
X196964678Y-85864571D01*
X197040869Y-85826476D01*
X197117059Y-85750285D01*
X197155154Y-85636000D01*
X197155154Y-85445523D01*
X184455154Y-73323523D02*
X183655154Y-73323523D01*
X183655154Y-73514000D01*
X183693250Y-73628285D01*
X183769440Y-73704476D01*
X183845630Y-73742571D01*
X183998011Y-73780666D01*
X184112297Y-73780666D01*
X184264678Y-73742571D01*
X184340869Y-73704476D01*
X184417059Y-73628285D01*
X184455154Y-73514000D01*
X184455154Y-73323523D01*
X183921821Y-74466380D02*
X184455154Y-74466380D01*
X183617059Y-74275904D02*
X184188488Y-74085428D01*
X184188488Y-74580666D01*
X171336107Y-84512190D02*
X171374202Y-84626476D01*
X171412297Y-84664571D01*
X171488488Y-84702666D01*
X171602773Y-84702666D01*
X171678964Y-84664571D01*
X171717059Y-84626476D01*
X171755154Y-84550285D01*
X171755154Y-84245523D01*
X170955154Y-84245523D01*
X170955154Y-84512190D01*
X170993250Y-84588380D01*
X171031345Y-84626476D01*
X171107535Y-84664571D01*
X171183726Y-84664571D01*
X171259916Y-84626476D01*
X171298011Y-84588380D01*
X171336107Y-84512190D01*
X171336107Y-84245523D01*
X170955154Y-85388380D02*
X170955154Y-85236000D01*
X170993250Y-85159809D01*
X171031345Y-85121714D01*
X171145630Y-85045523D01*
X171298011Y-85007428D01*
X171602773Y-85007428D01*
X171678964Y-85045523D01*
X171717059Y-85083619D01*
X171755154Y-85159809D01*
X171755154Y-85312190D01*
X171717059Y-85388380D01*
X171678964Y-85426476D01*
X171602773Y-85464571D01*
X171412297Y-85464571D01*
X171336107Y-85426476D01*
X171298011Y-85388380D01*
X171259916Y-85312190D01*
X171259916Y-85159809D01*
X171298011Y-85083619D01*
X171336107Y-85045523D01*
X171412297Y-85007428D01*
X189116107Y-84569333D02*
X189116107Y-84302666D01*
X189535154Y-84302666D02*
X188735154Y-84302666D01*
X188735154Y-84683619D01*
X189001821Y-85331238D02*
X189535154Y-85331238D01*
X188697059Y-85140761D02*
X189268488Y-84950285D01*
X189268488Y-85445523D01*
X186995154Y-73323523D02*
X186195154Y-73323523D01*
X186195154Y-73514000D01*
X186233250Y-73628285D01*
X186309440Y-73704476D01*
X186385630Y-73742571D01*
X186538011Y-73780666D01*
X186652297Y-73780666D01*
X186804678Y-73742571D01*
X186880869Y-73704476D01*
X186957059Y-73628285D01*
X186995154Y-73514000D01*
X186995154Y-73323523D01*
X186195154Y-74275904D02*
X186195154Y-74352095D01*
X186233250Y-74428285D01*
X186271345Y-74466380D01*
X186347535Y-74504476D01*
X186499916Y-74542571D01*
X186690392Y-74542571D01*
X186842773Y-74504476D01*
X186918964Y-74466380D01*
X186957059Y-74428285D01*
X186995154Y-74352095D01*
X186995154Y-74275904D01*
X186957059Y-74199714D01*
X186918964Y-74161619D01*
X186842773Y-74123523D01*
X186690392Y-74085428D01*
X186499916Y-74085428D01*
X186347535Y-74123523D01*
X186271345Y-74161619D01*
X186233250Y-74199714D01*
X186195154Y-74275904D01*
X189535154Y-73323523D02*
X188735154Y-73323523D01*
X188735154Y-73514000D01*
X188773250Y-73628285D01*
X188849440Y-73704476D01*
X188925630Y-73742571D01*
X189078011Y-73780666D01*
X189192297Y-73780666D01*
X189344678Y-73742571D01*
X189420869Y-73704476D01*
X189497059Y-73628285D01*
X189535154Y-73514000D01*
X189535154Y-73323523D01*
X189535154Y-74542571D02*
X189535154Y-74085428D01*
X189535154Y-74314000D02*
X188735154Y-74314000D01*
X188849440Y-74237809D01*
X188925630Y-74161619D01*
X188963726Y-74085428D01*
X181496107Y-84569333D02*
X181496107Y-84302666D01*
X181915154Y-84302666D02*
X181115154Y-84302666D01*
X181115154Y-84683619D01*
X181115154Y-84912190D02*
X181115154Y-85445523D01*
X181915154Y-85102666D01*
X181838964Y-73780666D02*
X181877059Y-73742571D01*
X181915154Y-73628285D01*
X181915154Y-73552095D01*
X181877059Y-73437809D01*
X181800869Y-73361619D01*
X181724678Y-73323523D01*
X181572297Y-73285428D01*
X181458011Y-73285428D01*
X181305630Y-73323523D01*
X181229440Y-73361619D01*
X181153250Y-73437809D01*
X181115154Y-73552095D01*
X181115154Y-73628285D01*
X181153250Y-73742571D01*
X181191345Y-73780666D01*
X181115154Y-74466380D02*
X181115154Y-74314000D01*
X181153250Y-74237809D01*
X181191345Y-74199714D01*
X181305630Y-74123523D01*
X181458011Y-74085428D01*
X181762773Y-74085428D01*
X181838964Y-74123523D01*
X181877059Y-74161619D01*
X181915154Y-74237809D01*
X181915154Y-74390190D01*
X181877059Y-74466380D01*
X181838964Y-74504476D01*
X181762773Y-74542571D01*
X181572297Y-74542571D01*
X181496107Y-74504476D01*
X181458011Y-74466380D01*
X181419916Y-74390190D01*
X181419916Y-74237809D01*
X181458011Y-74161619D01*
X181496107Y-74123523D01*
X181572297Y-74085428D01*
X197155154Y-73323523D02*
X196355154Y-73323523D01*
X196355154Y-73514000D01*
X196393250Y-73628285D01*
X196469440Y-73704476D01*
X196545630Y-73742571D01*
X196698011Y-73780666D01*
X196812297Y-73780666D01*
X196964678Y-73742571D01*
X197040869Y-73704476D01*
X197117059Y-73628285D01*
X197155154Y-73514000D01*
X197155154Y-73323523D01*
X196431345Y-74085428D02*
X196393250Y-74123523D01*
X196355154Y-74199714D01*
X196355154Y-74390190D01*
X196393250Y-74466380D01*
X196431345Y-74504476D01*
X196507535Y-74542571D01*
X196583726Y-74542571D01*
X196698011Y-74504476D01*
X197155154Y-74047333D01*
X197155154Y-74542571D01*
X176416107Y-84512190D02*
X176454202Y-84626476D01*
X176492297Y-84664571D01*
X176568488Y-84702666D01*
X176682773Y-84702666D01*
X176758964Y-84664571D01*
X176797059Y-84626476D01*
X176835154Y-84550285D01*
X176835154Y-84245523D01*
X176035154Y-84245523D01*
X176035154Y-84512190D01*
X176073250Y-84588380D01*
X176111345Y-84626476D01*
X176187535Y-84664571D01*
X176263726Y-84664571D01*
X176339916Y-84626476D01*
X176378011Y-84588380D01*
X176416107Y-84512190D01*
X176416107Y-84245523D01*
X176035154Y-84969333D02*
X176035154Y-85464571D01*
X176339916Y-85197904D01*
X176339916Y-85312190D01*
X176378011Y-85388380D01*
X176416107Y-85426476D01*
X176492297Y-85464571D01*
X176682773Y-85464571D01*
X176758964Y-85426476D01*
X176797059Y-85388380D01*
X176835154Y-85312190D01*
X176835154Y-85083619D01*
X176797059Y-85007428D01*
X176758964Y-84969333D01*
X191313250Y-73304476D02*
X191275154Y-73228285D01*
X191275154Y-73114000D01*
X191313250Y-72999714D01*
X191389440Y-72923523D01*
X191465630Y-72885428D01*
X191618011Y-72847333D01*
X191732297Y-72847333D01*
X191884678Y-72885428D01*
X191960869Y-72923523D01*
X192037059Y-72999714D01*
X192075154Y-73114000D01*
X192075154Y-73190190D01*
X192037059Y-73304476D01*
X191998964Y-73342571D01*
X191732297Y-73342571D01*
X191732297Y-73190190D01*
X192075154Y-73685428D02*
X191275154Y-73685428D01*
X192075154Y-74142571D01*
X191275154Y-74142571D01*
X192075154Y-74523523D02*
X191275154Y-74523523D01*
X191275154Y-74714000D01*
X191313250Y-74828285D01*
X191389440Y-74904476D01*
X191465630Y-74942571D01*
X191618011Y-74980666D01*
X191732297Y-74980666D01*
X191884678Y-74942571D01*
X191960869Y-74904476D01*
X192037059Y-74828285D01*
X192075154Y-74714000D01*
X192075154Y-74523523D01*
X198895154Y-73612651D02*
X198895154Y-74069794D01*
X199695154Y-73841223D02*
X198895154Y-73841223D01*
X198895154Y-74260270D02*
X199695154Y-74793604D01*
X198895154Y-74793604D02*
X199695154Y-74260270D01*
X198895154Y-75250747D02*
X198895154Y-75326937D01*
X198933250Y-75403128D01*
X198971345Y-75441223D01*
X199047535Y-75479318D01*
X199199916Y-75517413D01*
X199390392Y-75517413D01*
X199542773Y-75479318D01*
X199618964Y-75441223D01*
X199657059Y-75403128D01*
X199695154Y-75326937D01*
X199695154Y-75250747D01*
X199657059Y-75174556D01*
X199618964Y-75136461D01*
X199542773Y-75098366D01*
X199390392Y-75060270D01*
X199199916Y-75060270D01*
X199047535Y-75098366D01*
X198971345Y-75136461D01*
X198933250Y-75174556D01*
X198895154Y-75250747D01*
X198857059Y-76431699D02*
X199885630Y-75745985D01*
X199695154Y-76698366D02*
X198895154Y-76698366D01*
X198895154Y-76888842D01*
X198933250Y-77003128D01*
X199009440Y-77079318D01*
X199085630Y-77117413D01*
X199238011Y-77155508D01*
X199352297Y-77155508D01*
X199504678Y-77117413D01*
X199580869Y-77079318D01*
X199657059Y-77003128D01*
X199695154Y-76888842D01*
X199695154Y-76698366D01*
X198895154Y-77422175D02*
X198895154Y-77917413D01*
X199199916Y-77650747D01*
X199199916Y-77765032D01*
X199238011Y-77841223D01*
X199276107Y-77879318D01*
X199352297Y-77917413D01*
X199542773Y-77917413D01*
X199618964Y-77879318D01*
X199657059Y-77841223D01*
X199695154Y-77765032D01*
X199695154Y-77536461D01*
X199657059Y-77460270D01*
X199618964Y-77422175D01*
X193853250Y-73304476D02*
X193815154Y-73228285D01*
X193815154Y-73114000D01*
X193853250Y-72999714D01*
X193929440Y-72923523D01*
X194005630Y-72885428D01*
X194158011Y-72847333D01*
X194272297Y-72847333D01*
X194424678Y-72885428D01*
X194500869Y-72923523D01*
X194577059Y-72999714D01*
X194615154Y-73114000D01*
X194615154Y-73190190D01*
X194577059Y-73304476D01*
X194538964Y-73342571D01*
X194272297Y-73342571D01*
X194272297Y-73190190D01*
X194615154Y-73685428D02*
X193815154Y-73685428D01*
X194615154Y-74142571D01*
X193815154Y-74142571D01*
X194615154Y-74523523D02*
X193815154Y-74523523D01*
X193815154Y-74714000D01*
X193853250Y-74828285D01*
X193929440Y-74904476D01*
X194005630Y-74942571D01*
X194158011Y-74980666D01*
X194272297Y-74980666D01*
X194424678Y-74942571D01*
X194500869Y-74904476D01*
X194577059Y-74828285D01*
X194615154Y-74714000D01*
X194615154Y-74523523D01*
X176416107Y-73361619D02*
X176416107Y-73628285D01*
X176835154Y-73742571D02*
X176835154Y-73361619D01*
X176035154Y-73361619D01*
X176035154Y-73742571D01*
X176035154Y-74428285D02*
X176035154Y-74275904D01*
X176073250Y-74199714D01*
X176111345Y-74161619D01*
X176225630Y-74085428D01*
X176378011Y-74047333D01*
X176682773Y-74047333D01*
X176758964Y-74085428D01*
X176797059Y-74123523D01*
X176835154Y-74199714D01*
X176835154Y-74352095D01*
X176797059Y-74428285D01*
X176758964Y-74466380D01*
X176682773Y-74504476D01*
X176492297Y-74504476D01*
X176416107Y-74466380D01*
X176378011Y-74428285D01*
X176339916Y-74352095D01*
X176339916Y-74199714D01*
X176378011Y-74123523D01*
X176416107Y-74085428D01*
X176492297Y-74047333D01*
X191275154Y-83769333D02*
X192075154Y-84036000D01*
X191275154Y-84302666D01*
X191998964Y-85026476D02*
X192037059Y-84988380D01*
X192075154Y-84874095D01*
X192075154Y-84797904D01*
X192037059Y-84683619D01*
X191960869Y-84607428D01*
X191884678Y-84569333D01*
X191732297Y-84531238D01*
X191618011Y-84531238D01*
X191465630Y-84569333D01*
X191389440Y-84607428D01*
X191313250Y-84683619D01*
X191275154Y-84797904D01*
X191275154Y-84874095D01*
X191313250Y-84988380D01*
X191351345Y-85026476D01*
X191998964Y-85826476D02*
X192037059Y-85788380D01*
X192075154Y-85674095D01*
X192075154Y-85597904D01*
X192037059Y-85483619D01*
X191960869Y-85407428D01*
X191884678Y-85369333D01*
X191732297Y-85331238D01*
X191618011Y-85331238D01*
X191465630Y-85369333D01*
X191389440Y-85407428D01*
X191313250Y-85483619D01*
X191275154Y-85597904D01*
X191275154Y-85674095D01*
X191313250Y-85788380D01*
X191351345Y-85826476D01*
X178956107Y-84512190D02*
X178994202Y-84626476D01*
X179032297Y-84664571D01*
X179108488Y-84702666D01*
X179222773Y-84702666D01*
X179298964Y-84664571D01*
X179337059Y-84626476D01*
X179375154Y-84550285D01*
X179375154Y-84245523D01*
X178575154Y-84245523D01*
X178575154Y-84512190D01*
X178613250Y-84588380D01*
X178651345Y-84626476D01*
X178727535Y-84664571D01*
X178803726Y-84664571D01*
X178879916Y-84626476D01*
X178918011Y-84588380D01*
X178956107Y-84512190D01*
X178956107Y-84245523D01*
X179375154Y-85464571D02*
X179375154Y-85007428D01*
X179375154Y-85236000D02*
X178575154Y-85236000D01*
X178689440Y-85159809D01*
X178765630Y-85083619D01*
X178803726Y-85007428D01*
%TO.C,SW20*%
X156464047Y-63896428D02*
X157225952Y-63896428D01*
X153924047Y-63896428D02*
X154685952Y-63896428D01*
X154305000Y-64277380D02*
X154305000Y-63515476D01*
%TO.C,SW11*%
X99314047Y-63896428D02*
X100075952Y-63896428D01*
X96774047Y-63896428D02*
X97535952Y-63896428D01*
X97155000Y-64277380D02*
X97155000Y-63515476D01*
%TO.C,SW26*%
X192024047Y-63896428D02*
X192785952Y-63896428D01*
X192405000Y-64277380D02*
X192405000Y-63515476D01*
X194564047Y-63896428D02*
X195325952Y-63896428D01*
%TO.C,SW21*%
X156464047Y-82946428D02*
X157225952Y-82946428D01*
X153924047Y-82946428D02*
X154685952Y-82946428D01*
X154305000Y-83327380D02*
X154305000Y-82565476D01*
%TO.C,SW14*%
X115824047Y-63896428D02*
X116585952Y-63896428D01*
X116205000Y-64277380D02*
X116205000Y-63515476D01*
X118364047Y-63896428D02*
X119125952Y-63896428D01*
%TO.C,SW12*%
X99314047Y-82946428D02*
X100075952Y-82946428D01*
X96774047Y-82946428D02*
X97535952Y-82946428D01*
X97155000Y-83327380D02*
X97155000Y-82565476D01*
%TO.C,SW18*%
X134874047Y-82946428D02*
X135635952Y-82946428D01*
X135255000Y-83327380D02*
X135255000Y-82565476D01*
X137414047Y-82946428D02*
X138175952Y-82946428D01*
%TO.C,SW22*%
X175514047Y-44846428D02*
X176275952Y-44846428D01*
X172974047Y-44846428D02*
X173735952Y-44846428D01*
X173355000Y-45227380D02*
X173355000Y-44465476D01*
%TO.C,SW9*%
X77724047Y-82946428D02*
X78485952Y-82946428D01*
X78105000Y-83327380D02*
X78105000Y-82565476D01*
X80264047Y-82946428D02*
X81025952Y-82946428D01*
%TO.C,SW1*%
X42164047Y-44846428D02*
X42925952Y-44846428D01*
X39624047Y-44846428D02*
X40385952Y-44846428D01*
X40005000Y-45227380D02*
X40005000Y-44465476D01*
%TO.C,SW2*%
X39624047Y-63896428D02*
X40385952Y-63896428D01*
X40005000Y-64277380D02*
X40005000Y-63515476D01*
X42164047Y-63896428D02*
X42925952Y-63896428D01*
%TO.C,SW3*%
X42164047Y-82946428D02*
X42925952Y-82946428D01*
X39624047Y-82946428D02*
X40385952Y-82946428D01*
X40005000Y-83327380D02*
X40005000Y-82565476D01*
%TO.C,SW23*%
X175514047Y-63896428D02*
X176275952Y-63896428D01*
X172974047Y-63896428D02*
X173735952Y-63896428D01*
X173355000Y-64277380D02*
X173355000Y-63515476D01*
%TO.C,SW6*%
X61214047Y-82946428D02*
X61975952Y-82946428D01*
X58674047Y-82946428D02*
X59435952Y-82946428D01*
X59055000Y-83327380D02*
X59055000Y-82565476D01*
D11*
%TO.C,G\u002A\u002A\u002A*%
X125167571Y-58769250D02*
X125312714Y-58696678D01*
X125530428Y-58696678D01*
X125748142Y-58769250D01*
X125893285Y-58914392D01*
X125965857Y-59059535D01*
X126038428Y-59349821D01*
X126038428Y-59567535D01*
X125965857Y-59857821D01*
X125893285Y-60002964D01*
X125748142Y-60148107D01*
X125530428Y-60220678D01*
X125385285Y-60220678D01*
X125167571Y-60148107D01*
X125095000Y-60075535D01*
X125095000Y-59567535D01*
X125385285Y-59567535D01*
X124224142Y-58696678D02*
X124224142Y-59059535D01*
X124587000Y-58914392D02*
X124224142Y-59059535D01*
X123861285Y-58914392D01*
X124441857Y-59349821D02*
X124224142Y-59059535D01*
X124006428Y-59349821D01*
X123063000Y-58696678D02*
X123063000Y-59059535D01*
X123425857Y-58914392D02*
X123063000Y-59059535D01*
X122700142Y-58914392D01*
X123280714Y-59349821D02*
X123063000Y-59059535D01*
X122845285Y-59349821D01*
X121901857Y-58696678D02*
X121901857Y-59059535D01*
X122264714Y-58914392D02*
X121901857Y-59059535D01*
X121539000Y-58914392D01*
X122119571Y-59349821D02*
X121901857Y-59059535D01*
X121684142Y-59349821D01*
D12*
%TO.C,U1*%
X203143250Y-88265000D02*
X203143250Y-70485000D01*
X203143250Y-70485000D02*
X170123250Y-70485000D01*
X200603250Y-73025000D02*
X200603250Y-70485000D01*
X200603250Y-73025000D02*
X198063250Y-73025000D01*
X198063250Y-73025000D02*
X198063250Y-70485000D01*
X170123250Y-88265000D02*
X203143250Y-88265000D01*
X170123250Y-70485000D02*
X170123250Y-88265000D01*
D10*
X194714220Y-85619635D02*
X193914220Y-85619635D01*
X193914220Y-85619635D02*
X193914220Y-85719635D01*
X193914220Y-85719635D02*
X194714220Y-85719635D01*
X194714220Y-85719635D02*
X194714220Y-85619635D01*
G36*
X194714220Y-85719635D02*
G01*
X193914220Y-85719635D01*
X193914220Y-85619635D01*
X194714220Y-85619635D01*
X194714220Y-85719635D01*
G37*
X194714220Y-85719635D02*
X193914220Y-85719635D01*
X193914220Y-85619635D01*
X194714220Y-85619635D01*
X194714220Y-85719635D01*
X194714220Y-85219635D02*
X194614220Y-85219635D01*
X194614220Y-85219635D02*
X194614220Y-85719635D01*
X194614220Y-85719635D02*
X194714220Y-85719635D01*
X194714220Y-85719635D02*
X194714220Y-85219635D01*
G36*
X194714220Y-85719635D02*
G01*
X194614220Y-85719635D01*
X194614220Y-85219635D01*
X194714220Y-85219635D01*
X194714220Y-85719635D01*
G37*
X194714220Y-85719635D02*
X194614220Y-85719635D01*
X194614220Y-85219635D01*
X194714220Y-85219635D01*
X194714220Y-85719635D01*
X194714220Y-85219635D02*
X194414220Y-85219635D01*
X194414220Y-85219635D02*
X194414220Y-85319635D01*
X194414220Y-85319635D02*
X194714220Y-85319635D01*
X194714220Y-85319635D02*
X194714220Y-85219635D01*
G36*
X194714220Y-85319635D02*
G01*
X194414220Y-85319635D01*
X194414220Y-85219635D01*
X194714220Y-85219635D01*
X194714220Y-85319635D01*
G37*
X194714220Y-85319635D02*
X194414220Y-85319635D01*
X194414220Y-85219635D01*
X194714220Y-85219635D01*
X194714220Y-85319635D01*
X194314220Y-85419635D02*
X194214220Y-85419635D01*
X194214220Y-85419635D02*
X194214220Y-85519635D01*
X194214220Y-85519635D02*
X194314220Y-85519635D01*
X194314220Y-85519635D02*
X194314220Y-85419635D01*
G36*
X194314220Y-85519635D02*
G01*
X194214220Y-85519635D01*
X194214220Y-85419635D01*
X194314220Y-85419635D01*
X194314220Y-85519635D01*
G37*
X194314220Y-85519635D02*
X194214220Y-85519635D01*
X194214220Y-85419635D01*
X194314220Y-85419635D01*
X194314220Y-85519635D01*
X194114220Y-85219635D02*
X193914220Y-85219635D01*
X193914220Y-85219635D02*
X193914220Y-85319635D01*
X193914220Y-85319635D02*
X194114220Y-85319635D01*
X194114220Y-85319635D02*
X194114220Y-85219635D01*
G36*
X194114220Y-85319635D02*
G01*
X193914220Y-85319635D01*
X193914220Y-85219635D01*
X194114220Y-85219635D01*
X194114220Y-85319635D01*
G37*
X194114220Y-85319635D02*
X193914220Y-85319635D01*
X193914220Y-85219635D01*
X194114220Y-85219635D01*
X194114220Y-85319635D01*
%TO.C,G\u002A\u002A\u002A*%
G36*
X164850514Y-45224662D02*
G01*
X165019685Y-45333525D01*
X165094035Y-45515481D01*
X165043140Y-45737510D01*
X164952702Y-45835856D01*
X164762103Y-45898140D01*
X164561118Y-45865358D01*
X164416677Y-45737510D01*
X164366691Y-45549168D01*
X164420663Y-45353177D01*
X164578065Y-45232746D01*
X164616944Y-45221911D01*
X164850514Y-45224662D01*
G37*
G36*
X150039840Y-55043409D02*
G01*
X150169532Y-55094924D01*
X150296915Y-55243193D01*
X150285712Y-55445736D01*
X150280274Y-55457643D01*
X150165767Y-55533628D01*
X149983021Y-55542506D01*
X149794510Y-55490488D01*
X149662706Y-55383786D01*
X149627883Y-55270909D01*
X149685606Y-55130317D01*
X149835387Y-55043236D01*
X150039840Y-55043409D01*
G37*
G36*
X161024470Y-44200295D02*
G01*
X161217300Y-44312435D01*
X161341430Y-44489947D01*
X161372489Y-44689513D01*
X161286104Y-44867815D01*
X161185791Y-44935325D01*
X160973621Y-44964883D01*
X160757690Y-44900697D01*
X160589999Y-44762928D01*
X160522546Y-44571741D01*
X160569997Y-44409388D01*
X160715182Y-44249219D01*
X160900346Y-44182171D01*
X161024470Y-44200295D01*
G37*
G36*
X155228256Y-50845828D02*
G01*
X155234312Y-50848977D01*
X155414284Y-50977825D01*
X155442404Y-51104386D01*
X155321779Y-51241809D01*
X155236209Y-51293479D01*
X154960507Y-51342539D01*
X154643697Y-51259848D01*
X154488363Y-51161226D01*
X154460554Y-51038246D01*
X154574192Y-50869440D01*
X154713644Y-50763903D01*
X154938055Y-50739849D01*
X155228256Y-50845828D01*
G37*
G36*
X151587776Y-58567944D02*
G01*
X151887694Y-58741577D01*
X152137509Y-58964787D01*
X151966838Y-59410780D01*
X151898284Y-59613285D01*
X151824729Y-59905675D01*
X151796166Y-60132603D01*
X151796166Y-60408433D01*
X151309202Y-60354960D01*
X150847961Y-60287473D01*
X150418734Y-60176925D01*
X150132595Y-60036527D01*
X150082738Y-59988319D01*
X150028798Y-59793717D01*
X150099487Y-59515078D01*
X150293776Y-59158005D01*
X150299786Y-59148803D01*
X150579684Y-58826740D01*
X150906097Y-58617756D01*
X151251352Y-58529081D01*
X151587776Y-58567944D01*
G37*
G36*
X159731511Y-52784632D02*
G01*
X160028046Y-53007069D01*
X160193307Y-53166481D01*
X160394860Y-53390695D01*
X160575764Y-53618498D01*
X160706185Y-53811954D01*
X160756288Y-53933124D01*
X160753134Y-53945585D01*
X160658882Y-53987117D01*
X160467212Y-53998815D01*
X160223678Y-53983140D01*
X159973834Y-53942550D01*
X159763232Y-53879506D01*
X159599151Y-53803090D01*
X159288208Y-53581617D01*
X159073312Y-53282993D01*
X159012382Y-53137190D01*
X159029852Y-53016927D01*
X159145850Y-52861962D01*
X159290496Y-52737545D01*
X159491738Y-52695790D01*
X159731511Y-52784632D01*
G37*
G36*
X158129877Y-59333957D02*
G01*
X158226203Y-59387379D01*
X158479903Y-59641823D01*
X158634497Y-60014254D01*
X158688627Y-60501829D01*
X158691564Y-60965965D01*
X158379908Y-61060718D01*
X158200939Y-61101230D01*
X157887075Y-61142865D01*
X157561810Y-61161338D01*
X157138641Y-61137300D01*
X156791630Y-61037253D01*
X156550639Y-60851380D01*
X156397936Y-60570682D01*
X156355406Y-60442467D01*
X156327400Y-60281701D01*
X156371952Y-60146660D01*
X156501633Y-59963782D01*
X156656972Y-59780733D01*
X157014130Y-59480518D01*
X157394948Y-59299686D01*
X157775004Y-59247684D01*
X158129877Y-59333957D01*
G37*
G36*
X157850422Y-51909781D02*
G01*
X158068455Y-51982870D01*
X158343321Y-52098066D01*
X158607647Y-52227181D01*
X158816103Y-52347902D01*
X158923359Y-52437915D01*
X158928987Y-52454735D01*
X158897744Y-52581235D01*
X158795540Y-52753502D01*
X158702122Y-52861138D01*
X158534087Y-52955174D01*
X158316181Y-52948429D01*
X158010414Y-52845346D01*
X157904814Y-52787652D01*
X157711610Y-52650572D01*
X157496995Y-52476061D01*
X157297933Y-52296244D01*
X157151388Y-52143247D01*
X157094325Y-52049194D01*
X157098131Y-52027998D01*
X157195184Y-51946729D01*
X157386128Y-51893812D01*
X157621147Y-51878435D01*
X157850422Y-51909781D01*
G37*
G36*
X156925907Y-51530712D02*
G01*
X156946894Y-51662333D01*
X156848973Y-51812266D01*
X156725370Y-51908013D01*
X156511666Y-51949205D01*
X156233342Y-51879191D01*
X155870639Y-51695614D01*
X155669573Y-51559691D01*
X155596011Y-51443326D01*
X155672134Y-51338030D01*
X155724936Y-51311312D01*
X156315184Y-51311312D01*
X156354141Y-51350269D01*
X156393098Y-51311312D01*
X156354141Y-51272355D01*
X156315184Y-51311312D01*
X155724936Y-51311312D01*
X155899191Y-51223139D01*
X155943852Y-51204896D01*
X156115528Y-51155419D01*
X156273652Y-51171469D01*
X156493514Y-51257384D01*
X156599943Y-51311312D01*
X156774815Y-51399921D01*
X156925907Y-51530712D01*
G37*
G36*
X153293271Y-59026784D02*
G01*
X153577382Y-59180697D01*
X153788016Y-59463083D01*
X153832838Y-59556463D01*
X153868298Y-59694246D01*
X153850096Y-59855458D01*
X153777197Y-60101145D01*
X153723394Y-60262614D01*
X153653292Y-60461747D01*
X153612175Y-60563612D01*
X153531640Y-60592028D01*
X153336482Y-60613740D01*
X153072028Y-60622048D01*
X152812007Y-60613542D01*
X152448597Y-60550602D01*
X152220493Y-60418154D01*
X152120796Y-60206496D01*
X152142607Y-59905925D01*
X152279025Y-59506737D01*
X152328579Y-59391584D01*
X152441859Y-59167957D01*
X152558129Y-59047065D01*
X152719233Y-58997297D01*
X152967019Y-58987045D01*
X153293271Y-59026784D01*
G37*
G36*
X154268315Y-50751785D02*
G01*
X154240438Y-50790917D01*
X154109843Y-50959186D01*
X154016718Y-51056898D01*
X153950345Y-51092273D01*
X153718820Y-51113814D01*
X153437503Y-51045472D01*
X153146969Y-50905057D01*
X152887793Y-50710376D01*
X152700551Y-50479237D01*
X152687329Y-50454256D01*
X153666104Y-50454256D01*
X153705061Y-50493213D01*
X153744018Y-50454256D01*
X153705061Y-50415299D01*
X153666104Y-50454256D01*
X152687329Y-50454256D01*
X152661528Y-50405507D01*
X152593544Y-50233126D01*
X152591927Y-50138965D01*
X152619079Y-50123123D01*
X152769501Y-50081282D01*
X152990747Y-50046457D01*
X153217534Y-50038946D01*
X153703090Y-50128644D01*
X154190401Y-50352186D01*
X154359652Y-50454256D01*
X154441998Y-50503916D01*
X154268315Y-50751785D01*
G37*
G36*
X146420092Y-51121066D02*
G01*
X146512748Y-51183182D01*
X146736727Y-51367677D01*
X147001145Y-51615551D01*
X147279923Y-51898906D01*
X147546979Y-52189846D01*
X147776234Y-52460474D01*
X147941607Y-52682892D01*
X148017017Y-52829205D01*
X148030825Y-52962256D01*
X147974414Y-53099130D01*
X147808875Y-53198768D01*
X147510890Y-53282030D01*
X147489520Y-53286675D01*
X146950626Y-53358704D01*
X146463482Y-53339211D01*
X146066255Y-53229583D01*
X145953867Y-53172545D01*
X145620385Y-52915742D01*
X145377630Y-52588875D01*
X145234151Y-52222042D01*
X145198497Y-51845340D01*
X145279217Y-51488866D01*
X145484859Y-51182717D01*
X145528678Y-51141289D01*
X145792551Y-50988150D01*
X146084824Y-50981729D01*
X146420092Y-51121066D01*
G37*
G36*
X148976546Y-49015574D02*
G01*
X149308616Y-49095155D01*
X149575902Y-49291154D01*
X149784349Y-49612051D01*
X149939904Y-50066325D01*
X150048512Y-50662458D01*
X150073527Y-50840519D01*
X150167110Y-51311164D01*
X150289293Y-51653989D01*
X150449176Y-51889615D01*
X150655859Y-52038663D01*
X150711854Y-52068355D01*
X150884437Y-52225809D01*
X150913944Y-52391293D01*
X150805272Y-52533900D01*
X150563317Y-52622723D01*
X150269322Y-52639238D01*
X149891972Y-52613028D01*
X149512710Y-52551392D01*
X149205139Y-52462986D01*
X149201736Y-52461618D01*
X148837108Y-52233579D01*
X148533409Y-51880575D01*
X148302177Y-51425271D01*
X148154949Y-50890334D01*
X148103263Y-50298428D01*
X148114786Y-50042185D01*
X148201108Y-49612101D01*
X148364912Y-49288182D01*
X148597916Y-49083930D01*
X148891837Y-49012845D01*
X148976546Y-49015574D01*
G37*
G36*
X148352926Y-54609656D02*
G01*
X148681795Y-54675496D01*
X148960169Y-54795302D01*
X149152941Y-54951574D01*
X149225000Y-55126815D01*
X149202202Y-55258889D01*
X149121732Y-55378452D01*
X149066881Y-55423999D01*
X148969700Y-55573589D01*
X148951634Y-55606657D01*
X148821576Y-55733565D01*
X148624962Y-55858807D01*
X148587520Y-55879296D01*
X148368472Y-56023038D01*
X148096789Y-56227182D01*
X147822546Y-56454552D01*
X147740794Y-56525229D01*
X147495104Y-56727512D01*
X147288973Y-56883133D01*
X147160276Y-56963015D01*
X146929934Y-57022002D01*
X146621074Y-56990899D01*
X146358740Y-56846283D01*
X146176628Y-56609352D01*
X146108436Y-56301306D01*
X146109565Y-56249240D01*
X146200799Y-55830331D01*
X146422553Y-55444987D01*
X146752745Y-55111372D01*
X147169296Y-54847652D01*
X147650128Y-54671994D01*
X148173160Y-54602563D01*
X148352926Y-54609656D01*
G37*
G36*
X82571673Y-74856831D02*
G01*
X82527383Y-75282982D01*
X82362556Y-75683199D01*
X82075316Y-76066519D01*
X81703776Y-76385653D01*
X81283896Y-76602444D01*
X81214495Y-76625677D01*
X80718313Y-76717148D01*
X80247474Y-76678578D01*
X79835224Y-76512039D01*
X79750195Y-76454123D01*
X79476106Y-76157090D01*
X79319679Y-75775027D01*
X79286177Y-75327379D01*
X79380863Y-74833588D01*
X79476408Y-74571832D01*
X79633906Y-74295974D01*
X81907209Y-74295974D01*
X81946166Y-74334931D01*
X81985123Y-74295974D01*
X81946166Y-74257017D01*
X81907209Y-74295974D01*
X79633906Y-74295974D01*
X79758118Y-74078417D01*
X80148105Y-73690611D01*
X80660583Y-73392406D01*
X80813723Y-73321880D01*
X80990661Y-73235750D01*
X81125150Y-73185454D01*
X81444050Y-73172835D01*
X81775250Y-73274901D01*
X82078261Y-73475623D01*
X82312594Y-73758978D01*
X82406875Y-73955359D01*
X82501835Y-74295974D01*
X82528111Y-74390224D01*
X82571673Y-74856831D01*
G37*
G36*
X156054848Y-59754436D02*
G01*
X156047751Y-60096557D01*
X156044260Y-60168256D01*
X156024332Y-60451101D01*
X155999872Y-60660013D01*
X155975384Y-60754077D01*
X155925179Y-60779529D01*
X155756032Y-60835493D01*
X155518925Y-60898746D01*
X155305832Y-60949823D01*
X155101195Y-60989549D01*
X154945030Y-60993444D01*
X154777467Y-60961104D01*
X154538640Y-60892126D01*
X154388477Y-60839312D01*
X154174729Y-60731137D01*
X154057418Y-60625304D01*
X154055535Y-60621689D01*
X154031659Y-60425848D01*
X154096264Y-60156449D01*
X154231880Y-59852810D01*
X154421037Y-59554247D01*
X154475937Y-59492293D01*
X155380215Y-59492293D01*
X155419172Y-59531250D01*
X155458129Y-59492293D01*
X155419172Y-59453336D01*
X155380215Y-59492293D01*
X154475937Y-59492293D01*
X154646265Y-59300080D01*
X154805621Y-59165430D01*
X155143165Y-58967764D01*
X155447763Y-58913541D01*
X155711095Y-59003169D01*
X155924845Y-59237060D01*
X155981001Y-59342443D01*
X156026726Y-59492293D01*
X156034877Y-59519005D01*
X156054848Y-59754436D01*
G37*
G36*
X155049762Y-55186354D02*
G01*
X155439804Y-55296653D01*
X155859957Y-55520094D01*
X156333910Y-55867704D01*
X156638636Y-56106226D01*
X156988716Y-56341877D01*
X157324721Y-56506993D01*
X157689081Y-56617345D01*
X158124228Y-56688700D01*
X158672594Y-56736829D01*
X158739910Y-56741430D01*
X159286498Y-56785708D01*
X159707849Y-56837685D01*
X160031586Y-56904619D01*
X160285334Y-56993767D01*
X160496716Y-57112387D01*
X160693356Y-57267735D01*
X161015933Y-57553997D01*
X160928274Y-57902121D01*
X160911697Y-57965124D01*
X160817435Y-58272627D01*
X160715442Y-58549829D01*
X160590268Y-58849412D01*
X160381100Y-58653504D01*
X160100956Y-58442208D01*
X159689668Y-58223462D01*
X159236963Y-58057067D01*
X159220613Y-58052807D01*
X159027327Y-58021314D01*
X158712030Y-57987230D01*
X158304121Y-57953061D01*
X157833000Y-57921310D01*
X157328068Y-57894481D01*
X156922062Y-57873506D01*
X156151519Y-57816000D01*
X155513761Y-57738266D01*
X154993464Y-57635988D01*
X154575301Y-57504847D01*
X154243948Y-57340526D01*
X153984081Y-57138709D01*
X153780374Y-56895078D01*
X153667098Y-56686305D01*
X153587366Y-56323204D01*
X153637313Y-55971628D01*
X153801986Y-55656041D01*
X154066431Y-55400912D01*
X154415692Y-55230707D01*
X154834816Y-55169892D01*
X155049762Y-55186354D01*
G37*
G36*
X94365731Y-77993639D02*
G01*
X94428060Y-78048504D01*
X94437468Y-78134919D01*
X94438830Y-78361869D01*
X94430559Y-78700756D01*
X94413971Y-79127862D01*
X94390383Y-79619472D01*
X94361112Y-80151871D01*
X94327475Y-80701342D01*
X94290788Y-81244169D01*
X94252368Y-81756637D01*
X94213531Y-82215029D01*
X94175596Y-82595629D01*
X94162448Y-82711435D01*
X94039241Y-83591167D01*
X93889687Y-84328150D01*
X93711382Y-84932449D01*
X93501920Y-85414129D01*
X93438205Y-85525883D01*
X93179064Y-85887470D01*
X92870825Y-86215261D01*
X92550811Y-86472994D01*
X92256341Y-86624405D01*
X92067151Y-86676172D01*
X91557149Y-86721127D01*
X91088299Y-86618987D01*
X90665665Y-86373379D01*
X90294316Y-85987931D01*
X89979318Y-85466273D01*
X89725738Y-84812034D01*
X89700077Y-84723509D01*
X89657374Y-84535682D01*
X89626088Y-84316893D01*
X89604575Y-84042175D01*
X89591190Y-83686562D01*
X89584290Y-83225087D01*
X89582231Y-82632784D01*
X89585177Y-82052904D01*
X89594373Y-81380505D01*
X89608696Y-80702739D01*
X89626997Y-80073334D01*
X89648129Y-79546020D01*
X89714510Y-78173367D01*
X91563465Y-78117132D01*
X91837217Y-78108353D01*
X92383711Y-78088228D01*
X92892911Y-78066222D01*
X93335196Y-78043777D01*
X93680944Y-78022337D01*
X93900533Y-78003344D01*
X93948986Y-77997783D01*
X94216165Y-77977599D01*
X94365731Y-77993639D01*
G37*
G36*
X95721799Y-55078046D02*
G01*
X95677937Y-55738988D01*
X95611888Y-56496560D01*
X95523128Y-57365085D01*
X95411135Y-58358889D01*
X95275385Y-59492293D01*
X95216094Y-59987088D01*
X95139091Y-60657810D01*
X95065981Y-61324026D01*
X95000762Y-61948223D01*
X94947431Y-62492890D01*
X94909988Y-62920514D01*
X94897567Y-63097650D01*
X94874602Y-63539224D01*
X94854354Y-64076508D01*
X94837104Y-64684358D01*
X94823137Y-65337629D01*
X94812732Y-66011178D01*
X94806174Y-66679861D01*
X94803744Y-67318534D01*
X94805724Y-67902053D01*
X94812397Y-68405275D01*
X94824046Y-68803054D01*
X94840951Y-69070248D01*
X94879908Y-69454337D01*
X94490337Y-69556376D01*
X94187996Y-69630736D01*
X93550742Y-69765407D01*
X92869003Y-69886465D01*
X92207179Y-69982935D01*
X91629671Y-70043843D01*
X91416442Y-70059801D01*
X91047024Y-70085634D01*
X90729953Y-70105655D01*
X90516718Y-70116504D01*
X90205061Y-70127620D01*
X90231820Y-67291264D01*
X90236783Y-66483584D01*
X90232936Y-65408837D01*
X90215294Y-64471700D01*
X90183399Y-63661618D01*
X90136795Y-62968036D01*
X90075024Y-62380399D01*
X89997628Y-61888152D01*
X89904857Y-61401189D01*
X89303552Y-61401189D01*
X88692105Y-61386602D01*
X88007716Y-61338857D01*
X87350152Y-61262380D01*
X86751579Y-61161789D01*
X86244164Y-61041703D01*
X85860073Y-60906741D01*
X85744647Y-60851836D01*
X85589359Y-60754555D01*
X85465109Y-60623718D01*
X85340822Y-60422882D01*
X85185421Y-60115606D01*
X85181760Y-60108074D01*
X84862531Y-59383282D01*
X84631327Y-58688064D01*
X84478588Y-57978112D01*
X84394757Y-57209117D01*
X84370276Y-56336772D01*
X84420801Y-55265209D01*
X84546014Y-54417313D01*
X89229479Y-54417313D01*
X89268726Y-54864714D01*
X89445399Y-55329396D01*
X89486556Y-55408691D01*
X89638157Y-55646745D01*
X89818695Y-55812037D01*
X90088190Y-55963803D01*
X90282872Y-56051795D01*
X90566891Y-56157243D01*
X90789417Y-56214287D01*
X90845092Y-56220271D01*
X91206493Y-56191003D01*
X91598898Y-56067397D01*
X91960154Y-55867845D01*
X92167016Y-55656807D01*
X92367918Y-55334072D01*
X92529699Y-54955180D01*
X92626436Y-54570602D01*
X92637631Y-54469964D01*
X92598652Y-54044028D01*
X92433355Y-53654782D01*
X92164894Y-53317195D01*
X91816424Y-53046235D01*
X91411098Y-52856871D01*
X90972071Y-52764070D01*
X90522497Y-52782800D01*
X90085530Y-52928029D01*
X89999984Y-52973761D01*
X89808513Y-53112039D01*
X89650745Y-53304226D01*
X89484665Y-53597107D01*
X89328384Y-53955194D01*
X89229479Y-54417313D01*
X84546014Y-54417313D01*
X84579557Y-54190174D01*
X84843114Y-53200316D01*
X85207964Y-52306006D01*
X85670599Y-51517617D01*
X86227513Y-50845518D01*
X86748267Y-50380761D01*
X87486941Y-49879691D01*
X88297377Y-49476474D01*
X89157090Y-49175729D01*
X90043593Y-48982074D01*
X90934399Y-48900127D01*
X91807022Y-48934509D01*
X92638975Y-49089836D01*
X93407771Y-49370729D01*
X93441037Y-49386731D01*
X94010222Y-49748491D01*
X94518209Y-50239072D01*
X94951320Y-50839692D01*
X95295878Y-51531573D01*
X95538206Y-52295934D01*
X95548331Y-52339502D01*
X95626607Y-52721461D01*
X95685835Y-53114107D01*
X95725491Y-53531766D01*
X95745053Y-53988759D01*
X95744057Y-54469964D01*
X95743996Y-54499411D01*
X95721799Y-55078046D01*
G37*
G36*
X85368061Y-32575863D02*
G01*
X85480273Y-32621238D01*
X85998600Y-32924984D01*
X86416578Y-33336914D01*
X86726829Y-33842026D01*
X86921972Y-34425318D01*
X86994630Y-35071787D01*
X86937422Y-35766430D01*
X86925186Y-35832059D01*
X86775041Y-36381931D01*
X86539388Y-36985940D01*
X86239846Y-37594357D01*
X85898032Y-38157450D01*
X85818696Y-38276034D01*
X85647054Y-38553900D01*
X85506720Y-38826843D01*
X85380933Y-39134013D01*
X85252932Y-39514559D01*
X85105959Y-40007632D01*
X85094613Y-40047101D01*
X84893591Y-40784277D01*
X84719466Y-41507526D01*
X84567316Y-42245137D01*
X84432222Y-43025399D01*
X84309261Y-43876600D01*
X84193512Y-44827029D01*
X84080055Y-45904976D01*
X84079712Y-45908442D01*
X84054219Y-46174061D01*
X84031321Y-46434588D01*
X84010806Y-46700081D01*
X83992461Y-46980598D01*
X83976074Y-47286194D01*
X83961432Y-47626929D01*
X83948324Y-48012859D01*
X83936536Y-48454041D01*
X83925856Y-48960534D01*
X83916073Y-49542394D01*
X83906973Y-50209678D01*
X83898344Y-50972444D01*
X83889974Y-51840750D01*
X83881651Y-52824653D01*
X83873161Y-53934209D01*
X83864294Y-55179477D01*
X83854835Y-56570514D01*
X83849175Y-57404467D01*
X83839401Y-58773227D01*
X83829764Y-60001178D01*
X83819969Y-61097936D01*
X83809716Y-62073118D01*
X83798710Y-62936342D01*
X83786653Y-63697224D01*
X83773248Y-64365381D01*
X83758197Y-64950431D01*
X83741203Y-65461990D01*
X83721969Y-65909676D01*
X83700198Y-66303105D01*
X83675593Y-66651894D01*
X83647856Y-66965662D01*
X83616690Y-67254023D01*
X83581799Y-67526596D01*
X83542883Y-67792998D01*
X83499648Y-68062845D01*
X83420829Y-68492805D01*
X83226912Y-69303610D01*
X82990887Y-70033104D01*
X82719589Y-70666424D01*
X82419853Y-71188708D01*
X82098514Y-71585091D01*
X81762406Y-71840711D01*
X81639899Y-71895578D01*
X81279195Y-71979624D01*
X80909424Y-71977871D01*
X80598278Y-71887593D01*
X80537227Y-71853112D01*
X80205872Y-71579379D01*
X79881155Y-71173218D01*
X79573540Y-70654293D01*
X79293494Y-70042268D01*
X79051480Y-69356807D01*
X78857965Y-68617574D01*
X78778255Y-68224037D01*
X78692807Y-67711963D01*
X78622630Y-67165138D01*
X78567449Y-66571504D01*
X78526993Y-65919006D01*
X78500987Y-65195584D01*
X78489159Y-64389183D01*
X78491236Y-63487744D01*
X78506944Y-62479212D01*
X78536011Y-61351528D01*
X78578163Y-60092636D01*
X78633128Y-58690478D01*
X78650762Y-58252005D01*
X78686226Y-57299226D01*
X78722157Y-56249080D01*
X78757392Y-55140197D01*
X78790768Y-54011202D01*
X78821121Y-52900725D01*
X78847287Y-51847393D01*
X78868103Y-50889834D01*
X78896026Y-49586351D01*
X78938359Y-47955826D01*
X78987044Y-46464857D01*
X79043196Y-45104133D01*
X79107929Y-43864343D01*
X79182359Y-42736175D01*
X79267599Y-41710319D01*
X79364766Y-40777463D01*
X79474973Y-39928295D01*
X79599335Y-39153506D01*
X79738968Y-38443783D01*
X79894985Y-37789815D01*
X80068502Y-37182292D01*
X80260634Y-36611901D01*
X80472495Y-36069332D01*
X80705199Y-35545273D01*
X80760089Y-35430361D01*
X81195590Y-34640207D01*
X81680621Y-33971143D01*
X82235597Y-33394477D01*
X82329000Y-33312118D01*
X82923855Y-32881492D01*
X83538550Y-32589062D01*
X84159722Y-32438320D01*
X84774013Y-32432756D01*
X85368061Y-32575863D01*
G37*
G36*
X106190571Y-53543084D02*
G01*
X107363161Y-53697187D01*
X108470170Y-53985380D01*
X109505419Y-54406692D01*
X110462730Y-54960152D01*
X110855962Y-55256203D01*
X111444515Y-55802575D01*
X112030594Y-56461205D01*
X112594916Y-57207928D01*
X113118203Y-58018575D01*
X113581174Y-58868980D01*
X113927942Y-59570207D01*
X113813044Y-60466220D01*
X113811525Y-60477997D01*
X113758638Y-60846022D01*
X113682342Y-61323620D01*
X113589686Y-61869249D01*
X113487715Y-62441366D01*
X113383477Y-62998428D01*
X113361533Y-63112815D01*
X113240114Y-63760342D01*
X113137427Y-64341986D01*
X113049174Y-64889360D01*
X112971060Y-65434078D01*
X112898788Y-66007754D01*
X112828062Y-66642002D01*
X112754587Y-67368438D01*
X112674065Y-68218674D01*
X112648039Y-68509300D01*
X112574955Y-69469743D01*
X112524843Y-70383999D01*
X112497868Y-71234102D01*
X112494192Y-72002090D01*
X112513981Y-72669996D01*
X112557398Y-73219855D01*
X112624608Y-73633704D01*
X112728855Y-74005120D01*
X112925822Y-74531476D01*
X113166758Y-75043651D01*
X113429134Y-75495030D01*
X113690419Y-75838998D01*
X113832418Y-75998216D01*
X113959041Y-76153210D01*
X114007822Y-76231940D01*
X114000711Y-76249853D01*
X113892851Y-76334127D01*
X113681010Y-76448497D01*
X113398532Y-76578279D01*
X113078762Y-76708789D01*
X112755044Y-76825343D01*
X112460723Y-76913256D01*
X112456113Y-76914431D01*
X112144315Y-76981076D01*
X111738027Y-77045699D01*
X111230436Y-77108831D01*
X110614729Y-77171007D01*
X109884095Y-77232757D01*
X109031719Y-77294616D01*
X108050790Y-77357115D01*
X106934496Y-77420788D01*
X105676022Y-77486167D01*
X104268558Y-77553784D01*
X103583615Y-77578343D01*
X102708896Y-77589318D01*
X101867926Y-77577917D01*
X101084937Y-77545234D01*
X100384161Y-77492365D01*
X99789830Y-77420403D01*
X99326175Y-77330445D01*
X99103253Y-77267234D01*
X98782194Y-77157623D01*
X98472813Y-77034631D01*
X98209388Y-76913181D01*
X98026196Y-76808196D01*
X97957515Y-76734598D01*
X97953624Y-76718148D01*
X97874407Y-76609353D01*
X97725245Y-76466851D01*
X97677986Y-76423797D01*
X97471158Y-76113992D01*
X97360917Y-75692860D01*
X97350711Y-75172317D01*
X97358001Y-75087815D01*
X97417179Y-74779285D01*
X97540739Y-74522146D01*
X97753759Y-74276199D01*
X98081319Y-74001245D01*
X98724862Y-73581530D01*
X99460469Y-73260029D01*
X100217025Y-73083048D01*
X100353466Y-73066341D01*
X100676387Y-73039808D01*
X101023903Y-73031958D01*
X101421882Y-73043898D01*
X101896193Y-73076732D01*
X102472704Y-73131566D01*
X103177283Y-73209504D01*
X103190628Y-73211041D01*
X103845509Y-73272148D01*
X104505228Y-73308301D01*
X105138046Y-73319547D01*
X105712223Y-73305935D01*
X106196021Y-73267514D01*
X106557702Y-73204331D01*
X106814527Y-73125002D01*
X107295645Y-72907035D01*
X107713765Y-72627268D01*
X108037984Y-72308358D01*
X108237399Y-71972957D01*
X108290687Y-71795038D01*
X108315237Y-71358061D01*
X108202773Y-70923867D01*
X107965412Y-70510478D01*
X107615275Y-70135916D01*
X107164479Y-69818203D01*
X106625144Y-69575360D01*
X106534678Y-69545230D01*
X106244956Y-69462747D01*
X105921887Y-69394064D01*
X105540982Y-69335835D01*
X105077748Y-69284717D01*
X104507696Y-69237365D01*
X103806333Y-69190435D01*
X103537780Y-69173107D01*
X102868125Y-69120332D01*
X102318861Y-69058609D01*
X101863771Y-68982992D01*
X101476638Y-68888531D01*
X101131247Y-68770280D01*
X100801380Y-68623290D01*
X100550190Y-68483511D01*
X100151807Y-68202980D01*
X99786378Y-67880345D01*
X99490873Y-67549602D01*
X99302261Y-67244747D01*
X99282562Y-67191688D01*
X99224883Y-66948465D01*
X99176596Y-66623078D01*
X99146543Y-66270821D01*
X99134679Y-65924471D01*
X99146332Y-65634396D01*
X99190352Y-65392038D01*
X99273045Y-65141066D01*
X99375236Y-64889243D01*
X99742075Y-64191873D01*
X100181566Y-63622938D01*
X100689007Y-63187765D01*
X101259693Y-62891680D01*
X101533012Y-62796611D01*
X101924066Y-62692956D01*
X102324708Y-62633467D01*
X102770582Y-62615512D01*
X103297327Y-62636460D01*
X103940585Y-62693676D01*
X104499621Y-62742606D01*
X105223356Y-62778836D01*
X105907136Y-62783609D01*
X106522671Y-62757556D01*
X107041670Y-62701312D01*
X107435841Y-62615508D01*
X107863917Y-62440529D01*
X108329087Y-62143366D01*
X108713302Y-61775808D01*
X108991619Y-61362565D01*
X109139096Y-60928342D01*
X109158685Y-60695085D01*
X109086428Y-60240459D01*
X108877576Y-59811386D01*
X108544766Y-59429895D01*
X108100633Y-59118017D01*
X107928661Y-59031874D01*
X107552815Y-58884852D01*
X107096494Y-58755941D01*
X106540860Y-58640917D01*
X105867077Y-58535559D01*
X105056308Y-58435644D01*
X104677004Y-58392210D01*
X103913619Y-58294753D01*
X103275533Y-58196033D01*
X102741574Y-58091603D01*
X102290571Y-57977014D01*
X101901354Y-57847820D01*
X101552751Y-57699571D01*
X101473226Y-57661547D01*
X101064617Y-57452094D01*
X100770514Y-57265014D01*
X100562824Y-57075548D01*
X100413456Y-56858936D01*
X100294317Y-56590419D01*
X100260958Y-56494237D01*
X100169033Y-55999327D01*
X100207374Y-55525148D01*
X100374089Y-55106843D01*
X100433413Y-55019168D01*
X100736199Y-54709674D01*
X101161093Y-54416296D01*
X101681758Y-54152926D01*
X102271860Y-53933457D01*
X102905061Y-53771780D01*
X103673355Y-53641032D01*
X104958576Y-53524041D01*
X106190571Y-53543084D01*
G37*
G36*
X101618940Y-39175374D02*
G01*
X101943706Y-39405655D01*
X102172919Y-39756662D01*
X102309284Y-40231147D01*
X102355507Y-40831864D01*
X102355398Y-40865890D01*
X102352372Y-41075190D01*
X102345523Y-41421212D01*
X102335202Y-41889314D01*
X102321764Y-42464855D01*
X102305561Y-43133192D01*
X102286947Y-43879684D01*
X102266275Y-44689691D01*
X102243899Y-45548570D01*
X102220170Y-46441680D01*
X102215538Y-46614564D01*
X102191354Y-47524363D01*
X102168075Y-48411530D01*
X102146121Y-49259423D01*
X102125910Y-50051400D01*
X102107861Y-50770818D01*
X102092390Y-51401034D01*
X102079917Y-51925408D01*
X102070860Y-52327296D01*
X102065638Y-52590056D01*
X102048006Y-53635058D01*
X101811136Y-53719811D01*
X101601999Y-53806228D01*
X101229043Y-53999156D01*
X100849135Y-54232753D01*
X100513095Y-54474877D01*
X100271746Y-54693386D01*
X100086847Y-54938320D01*
X99958926Y-55230667D01*
X99893530Y-55592334D01*
X99878980Y-56064072D01*
X99887283Y-56226437D01*
X99976222Y-56687349D01*
X100147472Y-57095555D01*
X100382941Y-57402985D01*
X100432711Y-57443255D01*
X100631643Y-57573850D01*
X100909373Y-57733385D01*
X101221976Y-57896049D01*
X101876314Y-58218912D01*
X101825250Y-59284130D01*
X101804939Y-59704831D01*
X101776980Y-60277474D01*
X101748823Y-60848400D01*
X101724249Y-61340640D01*
X101674312Y-62331931D01*
X100955725Y-62681503D01*
X100594962Y-62872214D01*
X100170469Y-63161131D01*
X99818823Y-63501983D01*
X99506896Y-63928644D01*
X99201558Y-64474984D01*
X99077277Y-64723357D01*
X98972679Y-64956013D01*
X98906242Y-65161224D01*
X98867268Y-65384792D01*
X98845056Y-65672517D01*
X98828907Y-66070201D01*
X98823343Y-66233693D01*
X98815848Y-66590541D01*
X98823173Y-66843630D01*
X98849705Y-67030926D01*
X98899830Y-67190394D01*
X98977936Y-67360000D01*
X99025618Y-67447133D01*
X99270860Y-67786534D01*
X99603728Y-68144933D01*
X99983023Y-68484506D01*
X100367546Y-68767426D01*
X100716100Y-68955868D01*
X101169709Y-69139974D01*
X101121596Y-69497422D01*
X101077796Y-69742298D01*
X100946224Y-70240129D01*
X100755715Y-70803033D01*
X100521139Y-71388725D01*
X100257366Y-71954919D01*
X99866411Y-72730429D01*
X99313339Y-72941268D01*
X98916020Y-73111852D01*
X98414778Y-73380154D01*
X97956580Y-73682267D01*
X97567924Y-73998367D01*
X97275311Y-74308628D01*
X97105239Y-74593224D01*
X97069858Y-74725158D01*
X97033462Y-75036225D01*
X97027087Y-75404130D01*
X97050764Y-75768358D01*
X97104522Y-76068392D01*
X97109482Y-76085518D01*
X97220789Y-76346946D01*
X97369178Y-76573831D01*
X97552728Y-76787220D01*
X97160749Y-76967370D01*
X97071859Y-77006252D01*
X96598767Y-77171433D01*
X96003019Y-77327416D01*
X95311544Y-77469161D01*
X94551272Y-77591630D01*
X93749133Y-77689784D01*
X92932055Y-77758585D01*
X92635118Y-77775095D01*
X92009001Y-77797124D01*
X91328578Y-77807325D01*
X90623844Y-77806306D01*
X89924791Y-77794676D01*
X89261410Y-77773042D01*
X88663696Y-77742014D01*
X88161641Y-77702198D01*
X87785238Y-77654204D01*
X86972257Y-77483896D01*
X86094271Y-77208407D01*
X85350962Y-76859278D01*
X84740201Y-76435249D01*
X84259862Y-75935060D01*
X83907817Y-75357450D01*
X83812847Y-75143274D01*
X83723869Y-74875914D01*
X83683041Y-74602551D01*
X83674708Y-74248730D01*
X83679426Y-74031832D01*
X83710567Y-73722754D01*
X83785386Y-73447520D01*
X83920937Y-73128548D01*
X84017560Y-72939808D01*
X84398299Y-72405142D01*
X84906374Y-71940353D01*
X85544315Y-71544295D01*
X86314655Y-71215819D01*
X87219928Y-70953777D01*
X88262665Y-70757021D01*
X89445399Y-70624404D01*
X89551071Y-70614881D01*
X89825314Y-70579302D01*
X90016432Y-70537999D01*
X90088190Y-70498092D01*
X90107548Y-70475577D01*
X90239279Y-70451688D01*
X90458282Y-70458102D01*
X90581647Y-70464593D01*
X90922204Y-70459772D01*
X91363828Y-70434543D01*
X91871635Y-70392338D01*
X92410741Y-70336595D01*
X92946264Y-70270746D01*
X93443320Y-70198227D01*
X93867025Y-70122472D01*
X94295320Y-70019600D01*
X95094455Y-69726389D01*
X95786341Y-69324575D01*
X96367277Y-68817090D01*
X96833559Y-68206868D01*
X97181484Y-67496841D01*
X97213624Y-67407298D01*
X97315214Y-67083183D01*
X97421998Y-66695527D01*
X97515558Y-66309778D01*
X97537295Y-66209977D01*
X97580189Y-65990030D01*
X97613698Y-65767605D01*
X97638980Y-65520795D01*
X97657195Y-65227695D01*
X97669503Y-64866397D01*
X97677063Y-64414996D01*
X97681035Y-63851584D01*
X97682578Y-63154256D01*
X97681549Y-62601270D01*
X97675795Y-61770751D01*
X97665697Y-60887196D01*
X97651985Y-60002817D01*
X97635390Y-59169832D01*
X97616641Y-58440453D01*
X97609209Y-58176708D01*
X97592618Y-57392346D01*
X97586342Y-56638174D01*
X97590771Y-55877085D01*
X97606299Y-55071973D01*
X97633317Y-54185730D01*
X97672218Y-53181250D01*
X97693713Y-52649517D01*
X97727078Y-51766551D01*
X97761288Y-50801116D01*
X97794897Y-49796830D01*
X97826459Y-48797315D01*
X97854527Y-47846191D01*
X97877653Y-46987078D01*
X97900405Y-46098458D01*
X97921800Y-45305898D01*
X97941753Y-44637755D01*
X97961301Y-44077989D01*
X97981484Y-43610561D01*
X98003337Y-43219430D01*
X98027900Y-42888556D01*
X98056210Y-42601898D01*
X98089303Y-42343417D01*
X98128219Y-42097073D01*
X98173995Y-41846825D01*
X98227668Y-41576632D01*
X98255203Y-41443331D01*
X98350298Y-41032078D01*
X98444650Y-40723025D01*
X98552579Y-40474815D01*
X98688406Y-40246090D01*
X98951850Y-39906927D01*
X99425987Y-39497821D01*
X99985591Y-39218170D01*
X100625493Y-39071107D01*
X100671927Y-39065971D01*
X101195915Y-39063063D01*
X101618940Y-39175374D01*
G37*
G36*
X130641300Y-51499490D02*
G01*
X131282907Y-51457146D01*
X131846570Y-51355869D01*
X132119483Y-51277450D01*
X132885350Y-50977330D01*
X133609019Y-50580080D01*
X134253603Y-50107973D01*
X134782221Y-49583280D01*
X134997752Y-49318639D01*
X135212369Y-49029588D01*
X135414388Y-48723010D01*
X135611674Y-48382662D01*
X135812093Y-47992299D01*
X136023513Y-47535679D01*
X136253800Y-46996557D01*
X136510819Y-46358690D01*
X136802438Y-45605834D01*
X137136522Y-44721747D01*
X137306640Y-44269235D01*
X137654618Y-43356219D01*
X137963338Y-42569572D01*
X138240380Y-41894675D01*
X138493325Y-41316914D01*
X138729751Y-40821670D01*
X138957240Y-40394329D01*
X139183371Y-40020274D01*
X139415725Y-39684889D01*
X139661881Y-39373556D01*
X139929419Y-39071661D01*
X140225920Y-38764586D01*
X140238454Y-38752014D01*
X140555705Y-38438055D01*
X140805167Y-38208141D01*
X141025636Y-38034848D01*
X141255912Y-37890747D01*
X141534792Y-37748412D01*
X141901074Y-37580418D01*
X142142833Y-37473618D01*
X142594664Y-37289843D01*
X142954151Y-37174056D01*
X143250867Y-37119774D01*
X143514387Y-37120514D01*
X143774286Y-37169794D01*
X143807998Y-37179387D01*
X144180551Y-37363188D01*
X144517216Y-37658995D01*
X144780887Y-38026632D01*
X144934461Y-38425926D01*
X145038082Y-39016664D01*
X145080425Y-39644920D01*
X145027153Y-40154019D01*
X144985699Y-40388773D01*
X144935027Y-40759309D01*
X144877188Y-41244375D01*
X144814062Y-41823466D01*
X144747530Y-42476077D01*
X144679471Y-43181704D01*
X144611767Y-43919840D01*
X144546299Y-44669982D01*
X144484946Y-45411623D01*
X144429589Y-46124260D01*
X144382109Y-46787387D01*
X144344387Y-47380499D01*
X144318302Y-47883091D01*
X144296396Y-48404521D01*
X144268792Y-49100419D01*
X144239660Y-49868845D01*
X144210636Y-50665706D01*
X144183352Y-51446910D01*
X144159445Y-52168367D01*
X144144988Y-52584420D01*
X144114981Y-53334696D01*
X144111404Y-53414993D01*
X144077515Y-54175790D01*
X144034508Y-55068349D01*
X143987882Y-55973024D01*
X143939556Y-56850462D01*
X143891450Y-57661312D01*
X143854361Y-58270097D01*
X143806560Y-59081514D01*
X143759671Y-59904860D01*
X143715530Y-60706649D01*
X143675973Y-61453395D01*
X143642838Y-62111612D01*
X143617961Y-62647815D01*
X143576382Y-63598786D01*
X143533371Y-64561361D01*
X143494918Y-65393165D01*
X143460267Y-66107558D01*
X143428657Y-66717898D01*
X143399329Y-67237543D01*
X143371526Y-67679853D01*
X143344489Y-68058186D01*
X143317457Y-68385900D01*
X143289674Y-68676355D01*
X143260379Y-68942908D01*
X143220140Y-69268424D01*
X143001136Y-70626336D01*
X142714447Y-71867021D01*
X142661122Y-72036465D01*
X142362061Y-72986762D01*
X141945962Y-73981841D01*
X141468137Y-74848540D01*
X140930572Y-75583141D01*
X140335253Y-76181928D01*
X139684165Y-76641182D01*
X138979295Y-76957185D01*
X138966154Y-76961475D01*
X138537409Y-77038499D01*
X138043960Y-77032293D01*
X137546988Y-76948263D01*
X137107670Y-76791814D01*
X136870256Y-76660328D01*
X136348825Y-76251785D01*
X135889415Y-75717106D01*
X135504710Y-75072690D01*
X135207391Y-74334931D01*
X135099174Y-73959558D01*
X134975920Y-73384851D01*
X134889082Y-72751076D01*
X134838089Y-72042696D01*
X134837966Y-72036465D01*
X142056902Y-72036465D01*
X142095859Y-72075422D01*
X142134816Y-72036465D01*
X142095859Y-71997508D01*
X142056902Y-72036465D01*
X134837966Y-72036465D01*
X134822373Y-71244173D01*
X134841367Y-70339970D01*
X134894501Y-69314549D01*
X134981208Y-68152373D01*
X134994083Y-67993833D01*
X135046991Y-67230708D01*
X135090265Y-66417736D01*
X135123657Y-65577720D01*
X135146923Y-64733462D01*
X135159815Y-63907766D01*
X135162087Y-63123433D01*
X135153493Y-62403266D01*
X135133786Y-61770068D01*
X135102720Y-61246642D01*
X135060049Y-60855790D01*
X134854304Y-59772691D01*
X134542216Y-58665789D01*
X134144309Y-57684366D01*
X133658365Y-56824570D01*
X133082164Y-56082548D01*
X132413487Y-55454448D01*
X131650114Y-54936415D01*
X130810958Y-54518139D01*
X129839623Y-54183173D01*
X128818716Y-53986003D01*
X127728161Y-53921434D01*
X127583628Y-53922252D01*
X126694691Y-53971052D01*
X125896801Y-54101664D01*
X125148757Y-54323064D01*
X124409356Y-54644223D01*
X123844534Y-54955064D01*
X123252637Y-55361670D01*
X122725999Y-55827251D01*
X122257600Y-56363882D01*
X121840422Y-56983635D01*
X121467446Y-57698584D01*
X121131651Y-58520802D01*
X120826020Y-59462363D01*
X120543533Y-60535338D01*
X120277171Y-61751802D01*
X120179591Y-62252243D01*
X120073175Y-62854634D01*
X119982363Y-63450818D01*
X119904126Y-64067796D01*
X119835432Y-64732571D01*
X119773251Y-65472146D01*
X119714553Y-66313523D01*
X119656306Y-67283704D01*
X119651170Y-67373941D01*
X119571686Y-68631751D01*
X119483840Y-69746617D01*
X119384482Y-70730534D01*
X119270459Y-71595498D01*
X119138619Y-72353504D01*
X118985810Y-73016548D01*
X118808881Y-73596625D01*
X118604680Y-74105730D01*
X118370054Y-74555859D01*
X118101852Y-74959007D01*
X117796921Y-75327170D01*
X117452111Y-75672344D01*
X117229612Y-75860831D01*
X116694117Y-76193659D01*
X116138204Y-76386851D01*
X115578919Y-76439993D01*
X115033311Y-76352671D01*
X114518427Y-76124471D01*
X114051316Y-75754978D01*
X113908840Y-75595934D01*
X113610864Y-75169212D01*
X113333743Y-74654719D01*
X113100588Y-74098180D01*
X112934509Y-73545321D01*
X112921006Y-73483504D01*
X112857318Y-73040420D01*
X112818093Y-72464476D01*
X112803169Y-71773581D01*
X112812380Y-70985644D01*
X112845564Y-70118574D01*
X112902557Y-69190281D01*
X112983195Y-68218674D01*
X113056808Y-67449052D01*
X113129994Y-66733741D01*
X113201144Y-66106763D01*
X113275087Y-65533252D01*
X113356651Y-64978339D01*
X113450665Y-64407159D01*
X113561960Y-63784843D01*
X113695362Y-63076525D01*
X113701077Y-63046606D01*
X113802789Y-62491650D01*
X113899070Y-61927326D01*
X113983491Y-61394147D01*
X114049621Y-60932625D01*
X114091032Y-60583274D01*
X114122431Y-60288790D01*
X114172829Y-59859991D01*
X114237491Y-59336734D01*
X114312573Y-58749546D01*
X114394230Y-58128953D01*
X114478618Y-57505483D01*
X114567179Y-56842474D01*
X114668138Y-56053565D01*
X114773505Y-55202220D01*
X114877560Y-54335373D01*
X114974587Y-53499959D01*
X114984046Y-53414993D01*
X125928681Y-53414993D01*
X125967638Y-53453950D01*
X126006595Y-53414993D01*
X125967638Y-53376036D01*
X125928681Y-53414993D01*
X114984046Y-53414993D01*
X115058866Y-52742911D01*
X115192152Y-51587472D01*
X115207980Y-51467140D01*
X115721933Y-51467140D01*
X115760890Y-51506097D01*
X115799847Y-51467140D01*
X115760890Y-51428183D01*
X115721933Y-51467140D01*
X115207980Y-51467140D01*
X115391806Y-50069607D01*
X115615000Y-48579070D01*
X115858235Y-47134216D01*
X116118009Y-45753403D01*
X116390823Y-44454988D01*
X116673177Y-43257327D01*
X116961571Y-42178778D01*
X117252505Y-41237697D01*
X117415427Y-40775688D01*
X117869401Y-39689553D01*
X118376399Y-38739537D01*
X118934388Y-37928017D01*
X119365064Y-37452140D01*
X120163037Y-37452140D01*
X120164316Y-37465812D01*
X120215079Y-37466339D01*
X120328803Y-37345207D01*
X120372328Y-37288754D01*
X120391675Y-37248407D01*
X120299387Y-37315790D01*
X120216281Y-37387102D01*
X120163037Y-37452140D01*
X119365064Y-37452140D01*
X119541332Y-37257372D01*
X120195196Y-36729980D01*
X120893947Y-36348219D01*
X121635550Y-36114467D01*
X121960672Y-36064945D01*
X122586747Y-36080230D01*
X123179801Y-36247544D01*
X123738596Y-36566452D01*
X124261896Y-37036520D01*
X124388457Y-37178771D01*
X124441055Y-37248407D01*
X124692804Y-37581701D01*
X124944936Y-38023586D01*
X125147569Y-38518658D01*
X125303414Y-39081149D01*
X125415186Y-39725293D01*
X125485598Y-40465320D01*
X125517365Y-41315464D01*
X125513200Y-42289956D01*
X125475817Y-43403029D01*
X125449745Y-44121444D01*
X125439884Y-45173326D01*
X125472751Y-46099191D01*
X125551376Y-46914595D01*
X125678788Y-47635092D01*
X125858017Y-48276238D01*
X126092090Y-48853588D01*
X126384037Y-49382696D01*
X126736887Y-49879119D01*
X126868907Y-50032230D01*
X127277855Y-50410875D01*
X127768953Y-50768483D01*
X128291666Y-51070598D01*
X128795456Y-51282760D01*
X128806326Y-51286278D01*
X129347257Y-51412720D01*
X129826839Y-51467140D01*
X129977499Y-51484236D01*
X130641300Y-51499490D01*
G37*
G36*
X167608838Y-52079089D02*
G01*
X167445861Y-52414368D01*
X167296299Y-52786339D01*
X167154739Y-53211747D01*
X167015770Y-53707334D01*
X166873982Y-54289844D01*
X166723963Y-54976020D01*
X166560302Y-55782605D01*
X166377587Y-56726342D01*
X166224575Y-57541667D01*
X166217120Y-57583397D01*
X166065722Y-58430877D01*
X165933702Y-59233827D01*
X165823682Y-59986542D01*
X165730827Y-60725045D01*
X165650305Y-61485358D01*
X165577282Y-62303506D01*
X165506925Y-63215513D01*
X165505616Y-63233410D01*
X165467811Y-63694411D01*
X165422921Y-64159835D01*
X165376452Y-64576361D01*
X165333912Y-64890666D01*
X165333319Y-64894442D01*
X165295773Y-65245215D01*
X165280216Y-65530637D01*
X165269618Y-65725063D01*
X165254618Y-66308022D01*
X165250535Y-66968129D01*
X165257130Y-67679419D01*
X165274164Y-68415929D01*
X165301401Y-69151695D01*
X165338601Y-69860753D01*
X165385526Y-70517140D01*
X165396621Y-70657038D01*
X165434636Y-71236341D01*
X165469039Y-71908125D01*
X165497769Y-72622987D01*
X165518769Y-73331520D01*
X165529981Y-73984318D01*
X165531634Y-74172793D01*
X165534846Y-74759188D01*
X165532844Y-75220208D01*
X165524406Y-75579650D01*
X165508309Y-75861311D01*
X165483329Y-76088987D01*
X165448244Y-76286474D01*
X165401830Y-76477569D01*
X165193069Y-77120115D01*
X164774695Y-78009922D01*
X164233627Y-78828264D01*
X163583825Y-79557816D01*
X162839253Y-80181253D01*
X162013872Y-80681252D01*
X161989359Y-80693458D01*
X161637037Y-80855183D01*
X161177712Y-81048118D01*
X160649600Y-81257744D01*
X160090920Y-81469546D01*
X159539890Y-81669006D01*
X159034728Y-81841607D01*
X158613650Y-81972832D01*
X158496425Y-82006507D01*
X158106079Y-82112941D01*
X157836688Y-82168306D01*
X157666108Y-82169382D01*
X157572193Y-82112950D01*
X157532800Y-81995791D01*
X157525783Y-81814686D01*
X157528349Y-81752610D01*
X157553130Y-81501455D01*
X157599881Y-81149665D01*
X157663318Y-80735034D01*
X157738158Y-80295361D01*
X157872081Y-79479031D01*
X158025931Y-78301808D01*
X158139864Y-77107036D01*
X158213331Y-75918587D01*
X158245781Y-74760332D01*
X158236666Y-73656146D01*
X158185434Y-72629898D01*
X158091536Y-71705462D01*
X157954423Y-70906710D01*
X157856019Y-70504973D01*
X157558076Y-69647544D01*
X157162962Y-68907689D01*
X156665863Y-68278802D01*
X156061966Y-67754276D01*
X155346455Y-67327505D01*
X155315240Y-67312234D01*
X154846782Y-67104013D01*
X154362529Y-66932624D01*
X153827472Y-66788550D01*
X153206606Y-66662278D01*
X152464924Y-66544291D01*
X151976279Y-66474039D01*
X151444069Y-66397548D01*
X150937483Y-66324759D01*
X150520829Y-66264914D01*
X150374691Y-66242911D01*
X149420376Y-66043948D01*
X148567734Y-65766284D01*
X147984633Y-65490114D01*
X164668640Y-65490114D01*
X164677965Y-65582579D01*
X164701400Y-65594769D01*
X164729908Y-65530637D01*
X164724285Y-65489389D01*
X164677965Y-65478694D01*
X164668640Y-65490114D01*
X147984633Y-65490114D01*
X147825650Y-65414816D01*
X147203008Y-64994442D01*
X146708690Y-64510057D01*
X146351582Y-63966561D01*
X146236520Y-63714024D01*
X146086786Y-63202406D01*
X146069233Y-62704594D01*
X146179993Y-62180330D01*
X146192608Y-62141344D01*
X146465361Y-61556447D01*
X146860687Y-61040336D01*
X147355370Y-60609760D01*
X147926199Y-60281468D01*
X148549961Y-60072210D01*
X149203443Y-59998735D01*
X149263226Y-59999095D01*
X149521409Y-60019558D01*
X149708589Y-60088413D01*
X149895440Y-60229199D01*
X150109629Y-60384323D01*
X150446142Y-60528497D01*
X150874064Y-60614026D01*
X151422641Y-60648948D01*
X151496137Y-60650794D01*
X151767408Y-60665146D01*
X151957682Y-60687339D01*
X152029545Y-60713398D01*
X152082556Y-60780157D01*
X152262082Y-60847094D01*
X152537583Y-60895993D01*
X152876763Y-60921428D01*
X153247323Y-60917974D01*
X153361985Y-60912819D01*
X153636858Y-60908573D01*
X153828115Y-60917761D01*
X153899847Y-60939212D01*
X153911178Y-60958511D01*
X154022110Y-61032037D01*
X154213080Y-61120030D01*
X154343968Y-61162431D01*
X154717124Y-61224991D01*
X155145817Y-61241416D01*
X155565257Y-61211183D01*
X155910657Y-61133766D01*
X156114345Y-61071139D01*
X156235887Y-61068717D01*
X156316161Y-61129666D01*
X156476814Y-61262875D01*
X156810402Y-61393170D01*
X157258848Y-61458846D01*
X157804938Y-61456130D01*
X157942719Y-61447010D01*
X158229340Y-61421447D01*
X158443431Y-61379627D01*
X158635345Y-61303714D01*
X158855432Y-61175874D01*
X159154045Y-60978272D01*
X159399596Y-60804643D01*
X159824429Y-60464196D01*
X160202454Y-60111969D01*
X160503727Y-59776861D01*
X160698307Y-59487773D01*
X160716048Y-59451977D01*
X160811830Y-59242408D01*
X160936776Y-58953035D01*
X161068572Y-58635238D01*
X161153956Y-58421138D01*
X161223611Y-58223348D01*
X161270884Y-58036036D01*
X161300255Y-57825941D01*
X161316207Y-57559801D01*
X161316541Y-57542874D01*
X165603610Y-57542874D01*
X165612935Y-57635340D01*
X165636370Y-57647530D01*
X165664877Y-57583397D01*
X165659254Y-57542150D01*
X165612935Y-57531455D01*
X165603610Y-57542874D01*
X161316541Y-57542874D01*
X161323222Y-57204355D01*
X161325781Y-56726342D01*
X161326056Y-56513678D01*
X161321306Y-56039295D01*
X161306235Y-55671984D01*
X161277883Y-55376375D01*
X161233291Y-55117098D01*
X161169498Y-54858783D01*
X161151219Y-54791506D01*
X161076506Y-54468360D01*
X161056671Y-54250103D01*
X161088092Y-54103116D01*
X161098770Y-54077785D01*
X161117361Y-53948624D01*
X161064551Y-53789671D01*
X160926926Y-53555338D01*
X160926831Y-53555189D01*
X160657807Y-53189343D01*
X160354971Y-52863483D01*
X160046269Y-52601343D01*
X159759647Y-52426655D01*
X159523052Y-52363152D01*
X159486832Y-52359968D01*
X159294465Y-52289709D01*
X159092382Y-52156277D01*
X158922520Y-52027148D01*
X158518036Y-51797981D01*
X158093379Y-51642468D01*
X157707120Y-51584772D01*
X157481025Y-51571425D01*
X157411967Y-51545054D01*
X158808436Y-51545054D01*
X158847393Y-51584011D01*
X158886350Y-51545054D01*
X158847393Y-51506097D01*
X158808436Y-51545054D01*
X157411967Y-51545054D01*
X157328051Y-51513009D01*
X157215924Y-51385506D01*
X156985019Y-51135212D01*
X156625919Y-50948156D01*
X156190910Y-50883075D01*
X156015756Y-50876855D01*
X155796916Y-50830114D01*
X155651276Y-50725146D01*
X155571513Y-50659931D01*
X155356359Y-50544085D01*
X155095241Y-50447336D01*
X154927822Y-50393659D01*
X154731325Y-50314407D01*
X154635957Y-50252880D01*
X154578492Y-50201687D01*
X154412832Y-50094555D01*
X154186511Y-49968743D01*
X154134974Y-49942381D01*
X153917821Y-49847122D01*
X153699583Y-49789302D01*
X153428731Y-49758756D01*
X153053735Y-49745322D01*
X152986722Y-49743879D01*
X152574418Y-49718947D01*
X152277054Y-49655798D01*
X152059516Y-49536201D01*
X151886686Y-49341929D01*
X151723449Y-49054751D01*
X151630349Y-48843709D01*
X151569824Y-48620489D01*
X151539039Y-48345937D01*
X151528664Y-47968003D01*
X151528204Y-47826954D01*
X151537117Y-47505363D01*
X151569179Y-47265489D01*
X151634565Y-47052556D01*
X151743451Y-46811791D01*
X151867691Y-46586852D01*
X152236957Y-46079700D01*
X152734416Y-45552371D01*
X153345540Y-45021101D01*
X153534486Y-44875523D01*
X153962117Y-44582487D01*
X154008714Y-44555700D01*
X160016796Y-44555700D01*
X160037174Y-44903809D01*
X160168350Y-45219655D01*
X160407174Y-45461571D01*
X160408040Y-45462137D01*
X160665656Y-45569129D01*
X160986136Y-45623370D01*
X161281548Y-45609940D01*
X161378314Y-45569601D01*
X163913128Y-45569601D01*
X163932675Y-45916512D01*
X164061274Y-46230625D01*
X164295935Y-46469904D01*
X164464195Y-46552142D01*
X164788291Y-46627631D01*
X165099339Y-46621212D01*
X165255707Y-46556552D01*
X165478339Y-46377326D01*
X165665787Y-46141259D01*
X165769125Y-45900963D01*
X165787170Y-45778282D01*
X165759737Y-45414341D01*
X165622132Y-45107662D01*
X165400287Y-44873543D01*
X165120131Y-44727287D01*
X164807597Y-44684192D01*
X164616821Y-44729268D01*
X164488615Y-44759560D01*
X164189116Y-44968691D01*
X164005625Y-45231931D01*
X163913128Y-45569601D01*
X161378314Y-45569601D01*
X161435521Y-45545753D01*
X161659240Y-45365825D01*
X161847593Y-45128910D01*
X161951333Y-44888080D01*
X161971970Y-44729268D01*
X161930585Y-44368969D01*
X161778819Y-44067058D01*
X161543217Y-43838463D01*
X161250328Y-43698113D01*
X160926699Y-43660935D01*
X160598878Y-43741857D01*
X160293411Y-43955808D01*
X160110362Y-44216990D01*
X160016796Y-44555700D01*
X154008714Y-44555700D01*
X154436646Y-44309698D01*
X154992893Y-44038057D01*
X155665678Y-43748463D01*
X156264165Y-43488288D01*
X156899334Y-43179237D01*
X157468747Y-42867103D01*
X157944421Y-42567330D01*
X158298373Y-42295365D01*
X158434819Y-42164091D01*
X158755350Y-41788492D01*
X159018154Y-41391092D01*
X159116386Y-41216670D01*
X159610002Y-40420277D01*
X160107672Y-39762960D01*
X160626471Y-39231449D01*
X161183472Y-38812469D01*
X161795749Y-38492749D01*
X162480377Y-38259016D01*
X163254430Y-38097996D01*
X163714296Y-38049752D01*
X164494368Y-38050329D01*
X165324493Y-38135055D01*
X166160662Y-38296720D01*
X166958861Y-38528117D01*
X167675080Y-38822037D01*
X168108614Y-39061244D01*
X168682598Y-39496758D01*
X169147830Y-40024341D01*
X169517171Y-40659682D01*
X169803480Y-41418469D01*
X169867713Y-41701815D01*
X169929323Y-42142876D01*
X169976698Y-42674365D01*
X170008542Y-43261564D01*
X170023562Y-43869753D01*
X170020462Y-44464214D01*
X169997946Y-45010227D01*
X169954721Y-45473073D01*
X169929608Y-45640032D01*
X169904117Y-45778282D01*
X169857544Y-46030872D01*
X169757473Y-46508789D01*
X169636074Y-47047164D01*
X169500028Y-47619380D01*
X169356014Y-48198820D01*
X169210712Y-48758865D01*
X169070802Y-49272897D01*
X168942963Y-49714299D01*
X168833877Y-50056453D01*
X168750221Y-50272741D01*
X168732543Y-50308908D01*
X168576214Y-50590014D01*
X168369734Y-50919493D01*
X168152867Y-51233397D01*
X167996680Y-51451638D01*
X167935014Y-51545054D01*
X167790640Y-51763760D01*
X167608838Y-52079089D01*
G37*
%TD*%
D13*
%TO.C,U1*%
X199333250Y-71755000D03*
D14*
X196793250Y-71755000D03*
X194253250Y-71755000D03*
X191713250Y-71755000D03*
X189173250Y-71755000D03*
X186633250Y-71755000D03*
X184093250Y-71755000D03*
X181553250Y-71755000D03*
X179013250Y-71755000D03*
X176473250Y-71755000D03*
X173933250Y-71755000D03*
X171393250Y-71755000D03*
X171393250Y-86995000D03*
X173933250Y-86995000D03*
X176473250Y-86995000D03*
X179013250Y-86995000D03*
X181553250Y-86995000D03*
X184093250Y-86995000D03*
X186633250Y-86995000D03*
X189173250Y-86995000D03*
X191713250Y-86995000D03*
X194253250Y-86995000D03*
X196793250Y-86995000D03*
X199333250Y-86995000D03*
%TD*%
M02*
