M48
; DRILL file {KiCad 6.99.0} date Sat 01 Jan 2022 23:32:44
; FORMAT={-:-/ absolute / metric / decimal}
; #@! TF.CreationDate,2022-01-01T23:32:44+11:00
; #@! TF.GenerationSoftware,Kicad,Pcbnew,6.99.0
; #@! TF.FileFunction,Plated,1,2,PTH
FMAT,2
METRIC
; #@! TA.AperFunction,Plated,PTH,ViaDrill
T1C0.400
; #@! TA.AperFunction,Plated,PTH,ComponentDrill
T2C0.991
; #@! TA.AperFunction,Plated,PTH,ComponentDrill
T3C1.000
; #@! TA.AperFunction,Plated,PTH,ComponentDrill
T4C1.092
; #@! TA.AperFunction,Plated,PTH,ComponentDrill
T5C1.200
; #@! TA.AperFunction,Plated,PTH,ComponentDrill
T6C1.470
%
G90
G05
T1
X163.893Y-55.562
X163.893Y-75.406
X185.737Y-73.025
X188.119Y-84.862
T2
X40.005Y-46.355
X40.005Y-65.405
X40.005Y-84.455
X42.545Y-46.355
X42.545Y-65.405
X42.545Y-84.455
X59.055Y-46.355
X59.055Y-65.405
X59.055Y-84.455
X61.595Y-46.355
X61.595Y-65.405
X61.595Y-84.455
X78.105Y-46.355
X78.105Y-65.405
X78.105Y-84.455
X80.645Y-46.355
X80.645Y-65.405
X80.645Y-84.455
X97.155Y-46.355
X97.155Y-65.405
X97.155Y-84.455
X99.695Y-46.355
X99.695Y-65.405
X99.695Y-84.455
X116.205Y-46.355
X116.205Y-65.405
X116.205Y-84.455
X118.745Y-46.355
X118.745Y-65.405
X118.745Y-84.455
X135.255Y-46.355
X135.255Y-65.405
X135.255Y-84.455
X137.795Y-46.355
X137.795Y-65.405
X137.795Y-84.455
X154.305Y-46.355
X154.305Y-65.405
X154.305Y-84.455
X156.845Y-46.355
X156.845Y-65.405
X156.845Y-84.455
X173.355Y-46.355
X173.355Y-65.405
X175.895Y-46.355
X175.895Y-65.405
X192.405Y-46.355
X192.405Y-65.405
X194.945Y-46.355
X194.945Y-65.405
T3
X167.506Y-75.089
X167.506Y-77.629
X167.506Y-80.169
X167.506Y-82.709
T4
X171.393Y-71.755
X171.393Y-86.995
X173.933Y-71.755
X173.933Y-86.995
X176.473Y-71.755
X176.473Y-86.995
X179.013Y-71.755
X179.013Y-86.995
X181.553Y-71.755
X181.553Y-86.995
X184.093Y-71.755
X184.093Y-86.995
X186.633Y-71.755
X186.633Y-86.995
X189.173Y-71.755
X189.173Y-86.995
X191.713Y-71.755
X191.713Y-86.995
X194.253Y-71.755
X194.253Y-86.995
X196.793Y-71.755
X196.793Y-86.995
X199.333Y-71.755
X199.333Y-86.995
T5
X41.275Y-35.375
X41.275Y-54.425
X41.275Y-73.475
X46.275Y-37.475
X46.275Y-56.525
X46.275Y-75.575
X60.325Y-35.375
X60.325Y-54.425
X60.325Y-73.475
X65.325Y-37.475
X65.325Y-56.525
X65.325Y-75.575
X79.375Y-35.375
X79.375Y-54.425
X79.375Y-73.475
X84.375Y-37.475
X84.375Y-56.525
X84.375Y-75.575
X98.425Y-35.375
X98.425Y-54.425
X98.425Y-73.475
X103.425Y-37.475
X103.425Y-56.525
X103.425Y-75.575
X117.475Y-35.375
X117.475Y-54.425
X117.475Y-73.475
X122.475Y-37.475
X122.475Y-56.525
X122.475Y-75.575
X136.525Y-35.375
X136.525Y-54.425
X136.525Y-73.475
X141.525Y-37.475
X141.525Y-56.525
X141.525Y-75.575
X155.575Y-35.375
X155.575Y-54.425
X155.575Y-73.475
X160.575Y-37.475
X160.575Y-56.525
X160.575Y-75.575
X174.625Y-35.375
X174.625Y-54.425
X179.625Y-37.475
X179.625Y-56.525
X193.675Y-35.375
X193.675Y-54.425
X198.675Y-37.475
X198.675Y-56.525
T6
X37.465Y-38.735
X37.465Y-57.785
X37.465Y-76.835
X38.775Y-37.275
X38.775Y-56.325
X38.775Y-75.375
X43.775Y-36.775
X43.775Y-55.825
X43.775Y-74.875
X43.815Y-36.195
X43.815Y-55.245
X43.815Y-74.295
X56.515Y-38.735
X56.515Y-57.785
X56.515Y-76.835
X57.825Y-37.275
X57.825Y-56.325
X57.825Y-75.375
X62.825Y-36.775
X62.825Y-55.825
X62.825Y-74.875
X62.865Y-36.195
X62.865Y-55.245
X62.865Y-74.295
X75.565Y-38.735
X75.565Y-57.785
X75.565Y-76.835
X76.875Y-37.275
X76.875Y-56.325
X76.875Y-75.375
X81.875Y-36.775
X81.875Y-55.825
X81.875Y-74.875
X81.915Y-36.195
X81.915Y-55.245
X81.915Y-74.295
X94.615Y-38.735
X94.615Y-57.785
X94.615Y-76.835
X95.925Y-37.275
X95.925Y-56.325
X95.925Y-75.375
X100.925Y-36.775
X100.925Y-55.825
X100.925Y-74.875
X100.965Y-36.195
X100.965Y-55.245
X100.965Y-74.295
X113.665Y-38.735
X113.665Y-57.785
X113.665Y-76.835
X114.975Y-37.275
X114.975Y-56.325
X114.975Y-75.375
X119.975Y-36.775
X119.975Y-55.825
X119.975Y-74.875
X120.015Y-36.195
X120.015Y-55.245
X120.015Y-74.295
X132.715Y-38.735
X132.715Y-57.785
X132.715Y-76.835
X134.025Y-37.275
X134.025Y-56.325
X134.025Y-75.375
X139.025Y-36.775
X139.025Y-55.825
X139.025Y-74.875
X139.065Y-36.195
X139.065Y-55.245
X139.065Y-74.295
X151.765Y-38.735
X151.765Y-57.785
X151.765Y-76.835
X153.075Y-37.275
X153.075Y-56.325
X153.075Y-75.375
X158.075Y-36.775
X158.075Y-55.825
X158.075Y-74.875
X158.115Y-36.195
X158.115Y-55.245
X158.115Y-74.295
X170.815Y-38.735
X170.815Y-57.785
X172.125Y-37.275
X172.125Y-56.325
X177.125Y-36.775
X177.125Y-55.825
X177.165Y-36.195
X177.165Y-55.245
X189.865Y-38.735
X189.865Y-57.785
X191.175Y-37.275
X191.175Y-56.325
X196.175Y-36.775
X196.175Y-55.825
X196.215Y-36.195
X196.215Y-55.245
T0
M30
