%TF.GenerationSoftware,KiCad,Pcbnew,6.99.0*%
%TF.CreationDate,2022-01-01T23:32:49+11:00*%
%TF.ProjectId,help,68656c70-2e6b-4696-9361-645f70636258,rev?*%
%TF.SameCoordinates,Original*%
%TF.FileFunction,Soldermask,Top*%
%TF.FilePolarity,Negative*%
%FSLAX46Y46*%
G04 Gerber Fmt 4.6, Leading zero omitted, Abs format (unit mm)*
G04 Created by KiCad (PCBNEW 6.99.0) date 2022-01-01 23:32:49*
%MOMM*%
%LPD*%
G01*
G04 APERTURE LIST*
G04 Aperture macros list*
%AMHorizOval*
0 Thick line with rounded ends*
0 $1 width*
0 $2 $3 position (X,Y) of the first rounded end (center of the circle)*
0 $4 $5 position (X,Y) of the second rounded end (center of the circle)*
0 Add line between two ends*
20,1,$1,$2,$3,$4,$5,0*
0 Add two circle primitives to create the rounded ends*
1,1,$1,$2,$3*
1,1,$1,$4,$5*%
G04 Aperture macros list end*
%ADD10C,1.700000*%
%ADD11C,0.800000*%
%ADD12C,1.750000*%
%ADD13C,3.987800*%
%ADD14HorizOval,2.250000X0.654995X0.730004X-0.654995X-0.730004X0*%
%ADD15C,2.250000*%
%ADD16C,2.000000*%
%ADD17HorizOval,2.250000X0.019771X0.290016X-0.019771X-0.290016X0*%
%ADD18C,1.905000*%
%ADD19R,1.905000X1.905000*%
%ADD20R,1.700000X1.700000*%
%ADD21O,1.700000X1.700000*%
%ADD22R,1.752600X1.752600*%
%ADD23C,1.752600*%
G04 APERTURE END LIST*
D10*
%TO.C,SW25*%
X188175000Y-41275000D03*
D11*
X188455000Y-45475000D03*
D12*
X188595000Y-41275000D03*
D13*
X193675000Y-41275000D03*
D12*
X198755000Y-41275000D03*
D10*
X199175000Y-41275000D03*
D14*
X190519995Y-38004996D03*
D15*
X191175000Y-37275000D03*
D16*
X193675000Y-35375000D03*
D17*
X196194771Y-36484984D03*
D15*
X196215000Y-36195000D03*
D16*
X198675000Y-37475000D03*
D18*
X192405000Y-46355000D03*
D19*
X194945000Y-46355000D03*
%TD*%
D20*
%TO.C,J1*%
X167506250Y-75088750D03*
D21*
X167506250Y-77628750D03*
X167506250Y-80168750D03*
X167506250Y-82708750D03*
%TD*%
D10*
%TO.C,SW16*%
X131025000Y-41275000D03*
D11*
X131305000Y-45475000D03*
D12*
X131445000Y-41275000D03*
D13*
X136525000Y-41275000D03*
D12*
X141605000Y-41275000D03*
D10*
X142025000Y-41275000D03*
D14*
X133369995Y-38004996D03*
D15*
X134025000Y-37275000D03*
D16*
X136525000Y-35375000D03*
D17*
X139044771Y-36484984D03*
D15*
X139065000Y-36195000D03*
D16*
X141525000Y-37475000D03*
D18*
X135255000Y-46355000D03*
D19*
X137795000Y-46355000D03*
%TD*%
D10*
%TO.C,SW15*%
X111975000Y-79375000D03*
D11*
X112255000Y-83575000D03*
D12*
X112395000Y-79375000D03*
D13*
X117475000Y-79375000D03*
D12*
X122555000Y-79375000D03*
D10*
X122975000Y-79375000D03*
D14*
X114319995Y-76104996D03*
D15*
X114975000Y-75375000D03*
D16*
X117475000Y-73475000D03*
D17*
X119994771Y-74584984D03*
D15*
X120015000Y-74295000D03*
D16*
X122475000Y-75575000D03*
D18*
X116205000Y-84455000D03*
D19*
X118745000Y-84455000D03*
%TD*%
D10*
%TO.C,SW5*%
X54825000Y-60325000D03*
D11*
X55105000Y-64525000D03*
D12*
X55245000Y-60325000D03*
D13*
X60325000Y-60325000D03*
D12*
X65405000Y-60325000D03*
D10*
X65825000Y-60325000D03*
D14*
X57169995Y-57054996D03*
D15*
X57825000Y-56325000D03*
D16*
X60325000Y-54425000D03*
D17*
X62844771Y-55534984D03*
D15*
X62865000Y-55245000D03*
D16*
X65325000Y-56525000D03*
D18*
X59055000Y-65405000D03*
D19*
X61595000Y-65405000D03*
%TD*%
D10*
%TO.C,SW13*%
X111975000Y-41275000D03*
D11*
X112255000Y-45475000D03*
D12*
X112395000Y-41275000D03*
D13*
X117475000Y-41275000D03*
D12*
X122555000Y-41275000D03*
D10*
X122975000Y-41275000D03*
D14*
X114319995Y-38004996D03*
D15*
X114975000Y-37275000D03*
D16*
X117475000Y-35375000D03*
D17*
X119994771Y-36484984D03*
D15*
X120015000Y-36195000D03*
D16*
X122475000Y-37475000D03*
D18*
X116205000Y-46355000D03*
D19*
X118745000Y-46355000D03*
%TD*%
D10*
%TO.C,SW10*%
X92925000Y-41275000D03*
D11*
X93205000Y-45475000D03*
D12*
X93345000Y-41275000D03*
D13*
X98425000Y-41275000D03*
D12*
X103505000Y-41275000D03*
D10*
X103925000Y-41275000D03*
D14*
X95269995Y-38004996D03*
D15*
X95925000Y-37275000D03*
D16*
X98425000Y-35375000D03*
D17*
X100944771Y-36484984D03*
D15*
X100965000Y-36195000D03*
D16*
X103425000Y-37475000D03*
D18*
X97155000Y-46355000D03*
D19*
X99695000Y-46355000D03*
%TD*%
D10*
%TO.C,SW4*%
X54825000Y-41275000D03*
D11*
X55105000Y-45475000D03*
D12*
X55245000Y-41275000D03*
D13*
X60325000Y-41275000D03*
D12*
X65405000Y-41275000D03*
D10*
X65825000Y-41275000D03*
D14*
X57169995Y-38004996D03*
D15*
X57825000Y-37275000D03*
D16*
X60325000Y-35375000D03*
D17*
X62844771Y-36484984D03*
D15*
X62865000Y-36195000D03*
D16*
X65325000Y-37475000D03*
D18*
X59055000Y-46355000D03*
D19*
X61595000Y-46355000D03*
%TD*%
D10*
%TO.C,SW17*%
X131025000Y-60325000D03*
D11*
X131305000Y-64525000D03*
D12*
X131445000Y-60325000D03*
D13*
X136525000Y-60325000D03*
D12*
X141605000Y-60325000D03*
D10*
X142025000Y-60325000D03*
D14*
X133369995Y-57054996D03*
D15*
X134025000Y-56325000D03*
D16*
X136525000Y-54425000D03*
D17*
X139044771Y-55534984D03*
D15*
X139065000Y-55245000D03*
D16*
X141525000Y-56525000D03*
D18*
X135255000Y-65405000D03*
D19*
X137795000Y-65405000D03*
%TD*%
D10*
%TO.C,SW8*%
X73875000Y-60325000D03*
D11*
X74155000Y-64525000D03*
D12*
X74295000Y-60325000D03*
D13*
X79375000Y-60325000D03*
D12*
X84455000Y-60325000D03*
D10*
X84875000Y-60325000D03*
D14*
X76219995Y-57054996D03*
D15*
X76875000Y-56325000D03*
D16*
X79375000Y-54425000D03*
D17*
X81894771Y-55534984D03*
D15*
X81915000Y-55245000D03*
D16*
X84375000Y-56525000D03*
D18*
X78105000Y-65405000D03*
D19*
X80645000Y-65405000D03*
%TD*%
D10*
%TO.C,SW7*%
X73875000Y-41275000D03*
D11*
X74155000Y-45475000D03*
D12*
X74295000Y-41275000D03*
D13*
X79375000Y-41275000D03*
D12*
X84455000Y-41275000D03*
D10*
X84875000Y-41275000D03*
D14*
X76219995Y-38004996D03*
D15*
X76875000Y-37275000D03*
D16*
X79375000Y-35375000D03*
D17*
X81894771Y-36484984D03*
D15*
X81915000Y-36195000D03*
D16*
X84375000Y-37475000D03*
D18*
X78105000Y-46355000D03*
D19*
X80645000Y-46355000D03*
%TD*%
D10*
%TO.C,SW19*%
X150075000Y-41275000D03*
D11*
X150355000Y-45475000D03*
D12*
X150495000Y-41275000D03*
D13*
X155575000Y-41275000D03*
D12*
X160655000Y-41275000D03*
D10*
X161075000Y-41275000D03*
D14*
X152419995Y-38004996D03*
D15*
X153075000Y-37275000D03*
D16*
X155575000Y-35375000D03*
D17*
X158094771Y-36484984D03*
D15*
X158115000Y-36195000D03*
D16*
X160575000Y-37475000D03*
D18*
X154305000Y-46355000D03*
D19*
X156845000Y-46355000D03*
%TD*%
D22*
%TO.C,U1*%
X199333250Y-71755000D03*
D23*
X196793250Y-71755000D03*
X194253250Y-71755000D03*
X191713250Y-71755000D03*
X189173250Y-71755000D03*
X186633250Y-71755000D03*
X184093250Y-71755000D03*
X181553250Y-71755000D03*
X179013250Y-71755000D03*
X176473250Y-71755000D03*
X173933250Y-71755000D03*
X171393250Y-71755000D03*
X171393250Y-86995000D03*
X173933250Y-86995000D03*
X176473250Y-86995000D03*
X179013250Y-86995000D03*
X181553250Y-86995000D03*
X184093250Y-86995000D03*
X186633250Y-86995000D03*
X189173250Y-86995000D03*
X191713250Y-86995000D03*
X194253250Y-86995000D03*
X196793250Y-86995000D03*
X199333250Y-86995000D03*
%TD*%
D10*
%TO.C,SW20*%
X150075000Y-60325000D03*
D11*
X150355000Y-64525000D03*
D12*
X150495000Y-60325000D03*
D13*
X155575000Y-60325000D03*
D12*
X160655000Y-60325000D03*
D10*
X161075000Y-60325000D03*
D14*
X152419995Y-57054996D03*
D15*
X153075000Y-56325000D03*
D16*
X155575000Y-54425000D03*
D17*
X158094771Y-55534984D03*
D15*
X158115000Y-55245000D03*
D16*
X160575000Y-56525000D03*
D18*
X154305000Y-65405000D03*
D19*
X156845000Y-65405000D03*
%TD*%
D10*
%TO.C,SW11*%
X92925000Y-60325000D03*
D11*
X93205000Y-64525000D03*
D12*
X93345000Y-60325000D03*
D13*
X98425000Y-60325000D03*
D12*
X103505000Y-60325000D03*
D10*
X103925000Y-60325000D03*
D14*
X95269995Y-57054996D03*
D15*
X95925000Y-56325000D03*
D16*
X98425000Y-54425000D03*
D17*
X100944771Y-55534984D03*
D15*
X100965000Y-55245000D03*
D16*
X103425000Y-56525000D03*
D18*
X97155000Y-65405000D03*
D19*
X99695000Y-65405000D03*
%TD*%
D10*
%TO.C,SW26*%
X188175000Y-60325000D03*
D11*
X188455000Y-64525000D03*
D12*
X188595000Y-60325000D03*
D13*
X193675000Y-60325000D03*
D12*
X198755000Y-60325000D03*
D10*
X199175000Y-60325000D03*
D14*
X190519995Y-57054996D03*
D15*
X191175000Y-56325000D03*
D16*
X193675000Y-54425000D03*
D17*
X196194771Y-55534984D03*
D15*
X196215000Y-55245000D03*
D16*
X198675000Y-56525000D03*
D18*
X192405000Y-65405000D03*
D19*
X194945000Y-65405000D03*
%TD*%
D10*
%TO.C,SW21*%
X150075000Y-79375000D03*
D11*
X150355000Y-83575000D03*
D12*
X150495000Y-79375000D03*
D13*
X155575000Y-79375000D03*
D12*
X160655000Y-79375000D03*
D10*
X161075000Y-79375000D03*
D14*
X152419995Y-76104996D03*
D15*
X153075000Y-75375000D03*
D16*
X155575000Y-73475000D03*
D17*
X158094771Y-74584984D03*
D15*
X158115000Y-74295000D03*
D16*
X160575000Y-75575000D03*
D18*
X154305000Y-84455000D03*
D19*
X156845000Y-84455000D03*
%TD*%
D10*
%TO.C,SW14*%
X111975000Y-60325000D03*
D11*
X112255000Y-64525000D03*
D12*
X112395000Y-60325000D03*
D13*
X117475000Y-60325000D03*
D12*
X122555000Y-60325000D03*
D10*
X122975000Y-60325000D03*
D14*
X114319995Y-57054996D03*
D15*
X114975000Y-56325000D03*
D16*
X117475000Y-54425000D03*
D17*
X119994771Y-55534984D03*
D15*
X120015000Y-55245000D03*
D16*
X122475000Y-56525000D03*
D18*
X116205000Y-65405000D03*
D19*
X118745000Y-65405000D03*
%TD*%
D10*
%TO.C,SW12*%
X92925000Y-79375000D03*
D11*
X93205000Y-83575000D03*
D12*
X93345000Y-79375000D03*
D13*
X98425000Y-79375000D03*
D12*
X103505000Y-79375000D03*
D10*
X103925000Y-79375000D03*
D14*
X95269995Y-76104996D03*
D15*
X95925000Y-75375000D03*
D16*
X98425000Y-73475000D03*
D17*
X100944771Y-74584984D03*
D15*
X100965000Y-74295000D03*
D16*
X103425000Y-75575000D03*
D18*
X97155000Y-84455000D03*
D19*
X99695000Y-84455000D03*
%TD*%
D10*
%TO.C,SW18*%
X131025000Y-79375000D03*
D11*
X131305000Y-83575000D03*
D12*
X131445000Y-79375000D03*
D13*
X136525000Y-79375000D03*
D12*
X141605000Y-79375000D03*
D10*
X142025000Y-79375000D03*
D14*
X133369995Y-76104996D03*
D15*
X134025000Y-75375000D03*
D16*
X136525000Y-73475000D03*
D17*
X139044771Y-74584984D03*
D15*
X139065000Y-74295000D03*
D16*
X141525000Y-75575000D03*
D18*
X135255000Y-84455000D03*
D19*
X137795000Y-84455000D03*
%TD*%
D10*
%TO.C,SW22*%
X169125000Y-41275000D03*
D11*
X169405000Y-45475000D03*
D12*
X169545000Y-41275000D03*
D13*
X174625000Y-41275000D03*
D12*
X179705000Y-41275000D03*
D10*
X180125000Y-41275000D03*
D14*
X171469995Y-38004996D03*
D15*
X172125000Y-37275000D03*
D16*
X174625000Y-35375000D03*
D17*
X177144771Y-36484984D03*
D15*
X177165000Y-36195000D03*
D16*
X179625000Y-37475000D03*
D18*
X173355000Y-46355000D03*
D19*
X175895000Y-46355000D03*
%TD*%
D10*
%TO.C,SW9*%
X73875000Y-79375000D03*
D11*
X74155000Y-83575000D03*
D12*
X74295000Y-79375000D03*
D13*
X79375000Y-79375000D03*
D12*
X84455000Y-79375000D03*
D10*
X84875000Y-79375000D03*
D14*
X76219995Y-76104996D03*
D15*
X76875000Y-75375000D03*
D16*
X79375000Y-73475000D03*
D17*
X81894771Y-74584984D03*
D15*
X81915000Y-74295000D03*
D16*
X84375000Y-75575000D03*
D18*
X78105000Y-84455000D03*
D19*
X80645000Y-84455000D03*
%TD*%
D10*
%TO.C,SW1*%
X35775000Y-41275000D03*
D11*
X36055000Y-45475000D03*
D12*
X36195000Y-41275000D03*
D13*
X41275000Y-41275000D03*
D12*
X46355000Y-41275000D03*
D10*
X46775000Y-41275000D03*
D14*
X38119995Y-38004996D03*
D15*
X38775000Y-37275000D03*
D16*
X41275000Y-35375000D03*
D17*
X43794771Y-36484984D03*
D15*
X43815000Y-36195000D03*
D16*
X46275000Y-37475000D03*
D18*
X40005000Y-46355000D03*
D19*
X42545000Y-46355000D03*
%TD*%
D10*
%TO.C,SW2*%
X35775000Y-60325000D03*
D11*
X36055000Y-64525000D03*
D12*
X36195000Y-60325000D03*
D13*
X41275000Y-60325000D03*
D12*
X46355000Y-60325000D03*
D10*
X46775000Y-60325000D03*
D14*
X38119995Y-57054996D03*
D15*
X38775000Y-56325000D03*
D16*
X41275000Y-54425000D03*
D17*
X43794771Y-55534984D03*
D15*
X43815000Y-55245000D03*
D16*
X46275000Y-56525000D03*
D18*
X40005000Y-65405000D03*
D19*
X42545000Y-65405000D03*
%TD*%
D10*
%TO.C,SW3*%
X35775000Y-79375000D03*
D11*
X36055000Y-83575000D03*
D12*
X36195000Y-79375000D03*
D13*
X41275000Y-79375000D03*
D12*
X46355000Y-79375000D03*
D10*
X46775000Y-79375000D03*
D14*
X38119995Y-76104996D03*
D15*
X38775000Y-75375000D03*
D16*
X41275000Y-73475000D03*
D17*
X43794771Y-74584984D03*
D15*
X43815000Y-74295000D03*
D16*
X46275000Y-75575000D03*
D18*
X40005000Y-84455000D03*
D19*
X42545000Y-84455000D03*
%TD*%
D10*
%TO.C,SW23*%
X169125000Y-60325000D03*
D11*
X169405000Y-64525000D03*
D12*
X169545000Y-60325000D03*
D13*
X174625000Y-60325000D03*
D12*
X179705000Y-60325000D03*
D10*
X180125000Y-60325000D03*
D14*
X171469995Y-57054996D03*
D15*
X172125000Y-56325000D03*
D16*
X174625000Y-54425000D03*
D17*
X177144771Y-55534984D03*
D15*
X177165000Y-55245000D03*
D16*
X179625000Y-56525000D03*
D18*
X173355000Y-65405000D03*
D19*
X175895000Y-65405000D03*
%TD*%
D10*
%TO.C,SW6*%
X54825000Y-79375000D03*
D11*
X55105000Y-83575000D03*
D12*
X55245000Y-79375000D03*
D13*
X60325000Y-79375000D03*
D12*
X65405000Y-79375000D03*
D10*
X65825000Y-79375000D03*
D14*
X57169995Y-76104996D03*
D15*
X57825000Y-75375000D03*
D16*
X60325000Y-73475000D03*
D17*
X62844771Y-74584984D03*
D15*
X62865000Y-74295000D03*
D16*
X65325000Y-75575000D03*
D18*
X59055000Y-84455000D03*
D19*
X61595000Y-84455000D03*
%TD*%
M02*
